<svg id="svg" version="1.1" xmlns="http://www.w3.org/2000/svg" xmlns:xlink="http://www.w3.org/1999/xlink" width="400" height="400" viewBox="0, 0, 400,400"><g id="svgg"><path id="path0" d="M191.000 26.627 C 190.120 26.710,186.070 26.968,182.000 27.199 C 172.698 27.727,162.421 28.681,158.000 29.427 C 156.130 29.743,153.936 30.001,153.124 30.001 C 152.312 30.000,151.536 30.180,151.400 30.400 C 151.264 30.620,150.488 30.804,149.676 30.810 C 148.864 30.815,147.390 31.012,146.400 31.246 C 145.410 31.481,143.700 31.815,142.600 31.989 C 139.456 32.486,130.899 34.294,127.600 35.158 C 118.250 37.606,116.641 38.057,115.980 38.411 C 115.580 38.625,114.801 38.800,114.250 38.800 C 113.698 38.800,113.149 38.960,113.028 39.155 C 112.907 39.350,112.132 39.636,111.304 39.790 C 110.477 39.945,109.620 40.203,109.400 40.363 C 109.180 40.523,107.920 40.983,106.600 41.385 C 104.378 42.063,102.410 42.821,100.705 43.659 C 100.323 43.846,99.811 44.000,99.566 44.000 C 99.321 44.000,98.554 44.244,97.860 44.541 C 97.167 44.839,95.610 45.494,94.400 45.996 C 92.457 46.803,88.713 48.518,84.400 50.574 C 82.923 51.279,77.207 54.376,74.564 55.904 C 72.604 57.038,72.132 57.340,68.484 59.800 C 60.795 64.986,59.957 65.674,52.907 72.600 C 49.996 75.460,47.611 78.025,47.607 78.300 C 47.603 78.575,47.453 78.800,47.273 78.800 C 46.863 78.800,42.800 84.586,42.800 85.170 C 42.800 85.406,42.663 85.600,42.495 85.600 C 42.327 85.600,42.012 85.948,41.795 86.374 C 41.578 86.800,40.829 88.240,40.132 89.575 C 39.434 90.909,38.738 92.586,38.585 93.301 C 38.433 94.015,38.176 94.780,38.015 95.000 C 37.572 95.605,36.400 99.448,36.400 100.295 C 36.400 100.705,36.175 101.265,35.900 101.540 C 35.191 102.249,35.191 115.351,35.900 116.060 C 36.175 116.335,36.400 116.895,36.400 117.305 C 36.400 118.152,37.572 121.995,38.015 122.600 C 38.176 122.820,38.425 123.550,38.569 124.223 C 38.880 125.682,40.643 129.301,41.900 131.062 C 42.395 131.756,42.800 132.433,42.800 132.566 C 42.800 132.933,45.572 136.862,46.650 138.022 C 47.173 138.584,47.600 139.191,47.600 139.371 C 47.600 140.379,63.217 154.800,64.308 154.800 C 64.525 154.800,64.928 155.072,65.203 155.404 C 65.479 155.736,66.986 156.839,68.552 157.854 C 70.119 158.869,71.888 160.037,72.484 160.450 C 73.080 160.862,73.741 161.200,73.953 161.200 C 74.165 161.200,74.847 161.611,75.469 162.114 C 76.091 162.617,77.950 163.697,79.600 164.514 C 81.250 165.332,82.870 166.161,83.200 166.358 C 84.284 167.004,92.371 170.800,92.662 170.800 C 92.819 170.800,93.679 171.133,94.574 171.540 C 95.468 171.947,97.010 172.596,98.000 172.981 C 98.990 173.367,100.113 173.844,100.495 174.041 C 100.877 174.238,101.389 174.400,101.634 174.400 C 101.879 174.400,102.646 174.654,103.340 174.965 C 105.817 176.076,118.154 180.018,121.600 180.801 C 122.810 181.075,124.597 181.548,125.571 181.850 C 126.545 182.153,127.750 182.400,128.248 182.400 C 128.745 182.400,129.253 182.562,129.376 182.761 C 129.498 182.959,130.717 183.251,132.083 183.410 C 133.450 183.568,134.845 183.843,135.184 184.020 C 135.840 184.364,139.308 185.103,142.600 185.600 C 143.700 185.766,145.590 186.094,146.800 186.327 C 148.010 186.561,150.890 187.028,153.200 187.365 C 155.510 187.702,158.030 188.079,158.800 188.202 C 181.327 191.816,218.673 191.816,241.200 188.202 C 241.970 188.079,244.490 187.702,246.800 187.365 C 249.110 187.028,251.990 186.561,253.200 186.327 C 254.410 186.094,256.300 185.764,257.400 185.595 C 261.232 185.007,264.603 184.297,265.000 183.994 C 265.220 183.826,266.525 183.561,267.901 183.405 C 269.276 183.249,270.502 182.959,270.624 182.761 C 270.747 182.562,271.226 182.400,271.688 182.400 C 272.151 182.400,273.446 182.139,274.565 181.820 C 278.875 180.592,284.243 179.141,285.200 178.945 C 285.750 178.832,286.560 178.578,287.000 178.380 C 287.440 178.182,289.690 177.389,292.000 176.617 C 297.898 174.646,299.146 174.187,299.459 173.874 C 299.610 173.723,299.991 173.600,300.306 173.600 C 300.851 173.600,301.685 173.265,305.426 171.547 C 306.321 171.136,307.187 170.800,307.351 170.800 C 307.648 170.800,315.651 167.052,316.800 166.375 C 317.130 166.181,318.887 165.277,320.703 164.367 C 322.520 163.457,324.117 162.534,324.252 162.316 C 324.387 162.097,325.061 161.656,325.749 161.335 C 328.110 160.235,333.982 156.385,334.797 155.404 C 335.072 155.072,335.454 154.800,335.646 154.800 C 335.980 154.800,338.090 153.265,340.600 151.195 C 342.427 149.689,352.400 139.737,352.400 139.421 C 352.400 139.268,352.670 138.873,353.001 138.542 C 353.875 137.667,357.200 132.953,357.200 132.587 C 357.200 132.416,357.614 131.719,358.120 131.038 C 359.205 129.579,360.835 126.209,361.815 123.400 C 362.199 122.300,362.650 121.220,362.819 121.000 C 362.987 120.780,363.255 119.700,363.413 118.600 C 363.571 117.500,363.903 116.347,364.150 116.039 C 364.777 115.256,364.767 102.326,364.139 101.561 C 363.885 101.253,363.549 99.965,363.392 98.700 C 363.236 97.435,362.949 96.400,362.754 96.400 C 362.559 96.400,362.400 96.151,362.400 95.846 C 362.400 95.541,362.131 94.776,361.802 94.146 C 361.474 93.516,361.204 92.696,361.202 92.324 C 361.201 91.952,361.040 91.548,360.844 91.427 C 360.649 91.306,360.364 90.713,360.213 90.108 C 360.061 89.503,359.816 88.916,359.668 88.804 C 359.264 88.497,358.407 87.091,358.142 86.300 C 358.012 85.915,357.748 85.600,357.553 85.600 C 357.359 85.600,357.200 85.368,357.200 85.084 C 357.200 82.962,344.371 69.134,337.800 64.173 C 334.554 61.722,329.095 57.989,328.000 57.471 C 327.670 57.315,326.590 56.658,325.600 56.012 C 324.610 55.365,322.450 54.168,320.800 53.351 C 319.150 52.534,317.243 51.446,316.562 50.933 C 315.881 50.420,315.078 50.000,314.777 50.000 C 314.476 50.000,312.783 49.308,311.015 48.462 C 309.247 47.616,306.810 46.509,305.600 46.003 C 304.390 45.497,302.860 44.857,302.200 44.581 C 301.540 44.305,300.147 43.794,299.105 43.446 C 298.062 43.098,296.892 42.640,296.505 42.430 C 296.117 42.219,294.720 41.737,293.400 41.358 C 292.080 40.979,290.820 40.534,290.600 40.370 C 290.380 40.206,289.523 39.945,288.696 39.790 C 287.868 39.636,287.093 39.350,286.972 39.155 C 286.851 38.960,286.302 38.800,285.750 38.800 C 285.199 38.800,284.420 38.625,284.020 38.411 C 283.359 38.057,281.669 37.584,272.400 35.158 C 270.750 34.727,267.240 33.915,264.600 33.354 C 259.275 32.222,259.342 32.235,254.000 31.361 C 251.910 31.019,249.647 30.573,248.972 30.370 C 248.296 30.166,247.230 30.000,246.603 30.000 C 245.976 30.000,244.008 29.747,242.231 29.438 C 238.890 28.857,228.905 27.896,218.800 27.182 C 212.656 26.749,193.699 26.370,191.000 26.627 M218.800 64.347 C 225.755 65.121,236.207 67.022,241.400 68.456 C 251.723 71.307,255.636 72.718,263.200 76.316 C 303.068 95.277,298.770 128.117,254.200 145.087 C 253.320 145.422,252.240 145.841,251.800 146.018 C 249.224 147.057,240.518 149.416,235.200 150.516 C 204.561 156.855,172.545 154.764,144.400 144.587 C 128.704 138.911,115.473 128.177,111.195 117.650 C 102.387 95.973,127.640 73.438,168.800 66.243 C 170.670 65.916,173.280 65.460,174.600 65.230 C 175.920 65.000,179.250 64.619,182.000 64.383 C 184.750 64.147,187.180 63.880,187.400 63.790 C 188.208 63.460,215.120 63.937,218.800 64.347 " stroke="none" fill="#fcfbfb" fill-rule="evenodd"></path><path id="path1" d="M185.400 64.055 C 170.021 65.527,155.106 68.743,145.200 72.724 C 144.650 72.945,143.210 73.519,142.000 74.000 C 131.686 78.099,121.502 85.093,116.203 91.716 C 99.862 112.140,114.058 134.548,151.200 146.959 C 178.530 156.092,221.330 156.102,248.751 146.982 C 250.832 146.290,255.783 144.506,257.000 144.010 C 263.428 141.388,274.651 135.006,277.046 132.611 C 277.362 132.295,278.434 131.370,279.428 130.555 C 300.427 113.349,290.429 86.959,258.000 73.997 C 256.790 73.513,255.440 72.957,255.000 72.761 C 249.060 70.113,233.974 66.454,223.200 65.047 C 212.063 63.593,194.926 63.143,185.400 64.055 " stroke="none" fill="#fc8424" fill-rule="evenodd"></path><path id="path2" d="M196.300 26.298 C 198.335 26.371,201.665 26.371,203.700 26.298 C 205.735 26.225,204.070 26.166,200.000 26.166 C 195.930 26.166,194.265 26.225,196.300 26.298 M186.900 26.694 C 187.945 26.776,189.655 26.776,190.700 26.694 C 191.745 26.612,190.890 26.544,188.800 26.544 C 186.710 26.544,185.855 26.612,186.900 26.694 M209.300 26.694 C 210.345 26.776,212.055 26.776,213.100 26.694 C 214.145 26.612,213.290 26.544,211.200 26.544 C 209.110 26.544,208.255 26.612,209.300 26.694 M177.200 27.209 C 175.990 27.360,177.160 27.398,179.800 27.292 C 182.440 27.187,184.675 27.034,184.767 26.951 C 185.024 26.718,179.667 26.901,177.200 27.209 M215.233 26.951 C 215.325 27.034,217.650 27.195,220.400 27.310 C 223.796 27.452,224.566 27.419,222.800 27.206 C 220.020 26.872,214.957 26.701,215.233 26.951 M168.200 27.802 C 167.980 27.878,166.540 28.074,165.000 28.238 C 163.460 28.402,162.470 28.594,162.800 28.664 C 163.130 28.734,165.380 28.545,167.800 28.245 C 170.220 27.944,171.390 27.690,170.400 27.680 C 169.410 27.671,168.420 27.725,168.200 27.802 M231.800 28.187 C 236.205 28.779,238.754 28.897,236.200 28.391 C 235.320 28.217,233.070 27.978,231.200 27.862 L 227.800 27.649 231.800 28.187 M155.600 29.400 C 152.661 30.082,154.305 30.105,157.600 29.429 C 159.030 29.136,159.660 28.894,159.000 28.893 C 158.340 28.891,156.810 29.119,155.600 29.400 M242.400 29.415 C 245.788 30.113,247.322 30.081,244.200 29.376 C 242.880 29.079,241.350 28.845,240.800 28.857 C 240.250 28.869,240.970 29.120,242.400 29.415 M146.000 30.848 C 143.910 31.274,141.390 31.788,140.400 31.990 C 139.410 32.192,138.002 32.474,137.271 32.617 C 136.541 32.759,136.038 32.972,136.155 33.089 C 136.272 33.205,137.680 33.019,139.284 32.674 C 145.674 31.302,148.484 30.800,149.788 30.800 C 150.539 30.800,151.264 30.620,151.400 30.400 C 151.747 29.839,150.407 29.950,146.000 30.848 M249.000 30.382 C 250.048 30.811,255.311 31.694,257.600 31.825 C 258.590 31.882,258.860 31.846,258.200 31.746 C 257.540 31.645,255.338 31.212,253.307 30.782 C 249.381 29.951,247.527 29.779,249.000 30.382 M260.000 32.364 C 260.330 32.545,261.410 32.800,262.400 32.932 C 263.479 33.075,263.880 33.040,263.400 32.845 C 262.271 32.386,259.264 31.960,260.000 32.364 M131.800 33.789 C 129.679 34.488,130.450 34.503,133.200 33.817 C 134.410 33.515,134.950 33.267,134.400 33.265 C 133.850 33.263,132.680 33.499,131.800 33.789 M266.800 33.817 C 268.010 34.119,269.180 34.355,269.400 34.341 C 270.204 34.291,266.570 33.262,265.600 33.265 C 265.050 33.267,265.590 33.515,266.800 33.817 M127.000 35.015 C 125.423 35.561,125.420 35.565,126.800 35.332 C 128.432 35.057,130.100 34.448,129.200 34.456 C 128.870 34.459,127.880 34.711,127.000 35.015 M271.000 34.746 C 271.440 34.939,272.430 35.210,273.200 35.350 C 274.161 35.524,274.349 35.494,273.800 35.254 C 273.360 35.061,272.370 34.790,271.600 34.650 C 270.639 34.476,270.451 34.506,271.000 34.746 M122.200 36.207 L 120.600 36.752 122.200 36.525 C 123.888 36.285,125.581 35.606,124.400 35.643 C 124.070 35.653,123.080 35.907,122.200 36.207 M275.600 35.961 C 275.930 36.146,276.920 36.405,277.800 36.537 L 279.400 36.776 278.000 36.219 C 276.411 35.585,274.580 35.389,275.600 35.961 M115.400 38.214 C 113.785 38.954,114.751 38.955,116.454 38.216 C 117.194 37.894,117.530 37.639,117.200 37.648 C 116.870 37.657,116.060 37.912,115.400 38.214 M283.546 38.216 C 284.286 38.537,285.096 38.793,285.346 38.784 C 285.596 38.776,285.194 38.506,284.454 38.184 C 283.714 37.863,282.904 37.607,282.654 37.616 C 282.404 37.624,282.806 37.894,283.546 38.216 M112.200 39.085 C 110.975 39.380,110.598 39.928,111.776 39.703 C 112.346 39.594,112.910 39.346,113.030 39.152 C 113.149 38.959,113.192 38.821,113.124 38.846 C 113.056 38.872,112.640 38.979,112.200 39.085 M287.006 39.210 C 287.106 39.372,287.635 39.590,288.182 39.694 C 288.729 39.799,289.094 39.752,288.994 39.590 C 288.894 39.428,288.365 39.210,287.818 39.106 C 287.271 39.001,286.906 39.048,287.006 39.210 M108.282 40.251 C 108.144 40.390,107.079 40.827,105.915 41.223 C 104.752 41.620,104.077 41.957,104.415 41.972 C 105.114 42.004,109.064 40.670,109.468 40.265 C 109.614 40.119,109.463 40.000,109.133 40.000 C 108.803 40.000,108.420 40.113,108.282 40.251 M290.600 40.279 C 291.041 40.706,295.025 42.017,295.746 41.972 C 295.996 41.957,295.210 41.587,294.000 41.151 C 290.798 39.998,290.134 39.827,290.600 40.279 M102.200 42.614 C 101.540 42.917,101.281 43.172,101.624 43.182 C 101.966 43.192,102.596 42.936,103.024 42.613 C 103.972 41.896,103.769 41.896,102.200 42.614 M296.976 42.578 C 297.404 42.920,298.034 43.186,298.376 43.168 C 298.915 43.141,298.918 43.107,298.400 42.914 C 298.070 42.792,297.440 42.526,297.000 42.324 C 296.213 41.962,296.212 41.966,296.976 42.578 M99.000 43.802 L 97.800 44.367 99.000 44.132 C 99.660 44.003,100.371 43.740,100.580 43.548 C 101.150 43.026,100.387 43.148,99.000 43.802 M299.600 43.546 C 300.574 44.126,302.258 44.547,301.800 44.097 C 301.580 43.880,300.860 43.588,300.200 43.446 C 299.417 43.278,299.208 43.313,299.600 43.546 M96.600 44.685 C 95.375 44.980,94.998 45.528,96.176 45.303 C 96.746 45.194,97.310 44.946,97.430 44.752 C 97.549 44.559,97.592 44.421,97.524 44.446 C 97.456 44.472,97.040 44.579,96.600 44.685 M302.606 44.810 C 302.706 44.972,303.235 45.190,303.782 45.294 C 304.329 45.399,304.694 45.352,304.594 45.190 C 304.494 45.028,303.965 44.810,303.418 44.706 C 302.871 44.601,302.506 44.648,302.606 44.810 M93.000 46.214 C 92.340 46.517,92.070 46.766,92.400 46.768 C 92.730 46.770,93.450 46.514,94.000 46.200 C 95.265 45.477,94.589 45.487,93.000 46.214 M306.000 46.200 C 306.550 46.514,307.270 46.771,307.600 46.770 C 307.930 46.769,307.594 46.506,306.854 46.184 C 305.151 45.445,304.694 45.453,306.000 46.200 M310.576 48.220 C 311.436 48.862,312.168 48.996,311.830 48.448 C 311.710 48.255,311.205 47.994,310.706 47.868 C 309.832 47.648,309.827 47.660,310.576 48.220 M82.800 51.000 C 82.055 51.550,81.562 52.000,81.705 52.000 C 81.847 52.000,82.628 51.550,83.438 51.000 C 84.249 50.450,84.741 50.000,84.534 50.000 C 84.326 50.000,83.545 50.450,82.800 51.000 M316.600 50.953 C 317.824 51.991,318.647 52.323,318.198 51.597 C 318.061 51.376,317.376 50.911,316.675 50.565 L 315.400 49.935 316.600 50.953 M319.376 52.620 C 320.236 53.262,320.968 53.396,320.630 52.848 C 320.510 52.655,320.005 52.394,319.506 52.268 C 318.632 52.048,318.627 52.060,319.376 52.620 M77.700 53.612 C 77.205 53.811,76.800 54.070,76.800 54.187 C 76.800 54.575,77.437 54.408,78.224 53.813 C 79.108 53.143,78.985 53.096,77.700 53.612 M324.379 55.115 C 325.628 56.152,328.099 57.635,328.278 57.455 C 328.380 57.354,327.594 56.774,326.531 56.166 C 323.739 54.570,323.697 54.550,324.379 55.115 M72.800 56.600 C 72.055 57.150,71.562 57.600,71.705 57.600 C 71.847 57.600,72.628 57.150,73.438 56.600 C 74.249 56.050,74.741 55.600,74.534 55.600 C 74.326 55.600,73.545 56.050,72.800 56.600 M329.600 58.378 C 331.020 59.578,332.361 60.325,331.731 59.565 C 331.473 59.254,330.663 58.670,329.931 58.267 L 328.600 57.533 329.600 58.378 M64.888 61.767 C 63.568 62.738,62.342 63.773,62.162 64.067 C 61.983 64.360,62.426 64.105,63.148 63.500 C 63.871 62.895,64.583 62.393,64.731 62.384 C 65.076 62.363,67.850 60.000,67.529 60.000 C 67.396 60.000,66.208 60.795,64.888 61.767 M332.600 60.244 C 332.820 60.459,334.440 61.695,336.200 62.991 C 337.960 64.287,339.985 65.890,340.700 66.552 C 341.415 67.215,342.000 67.620,342.000 67.453 C 342.000 67.100,340.825 66.089,337.200 63.324 C 334.634 61.367,331.822 59.484,332.600 60.244 M59.714 65.684 C 58.881 66.391,58.125 67.021,58.033 67.084 C 57.942 67.148,57.946 67.279,58.043 67.376 C 58.139 67.473,59.010 66.843,59.977 65.976 C 62.082 64.090,61.870 63.855,59.714 65.684 M53.013 71.987 C 50.828 74.180,49.122 76.025,49.220 76.087 C 49.319 76.149,51.211 74.355,53.425 72.100 C 55.638 69.845,57.345 68.000,57.217 68.000 C 57.089 68.000,55.198 69.794,53.013 71.987 M346.575 72.100 C 348.789 74.355,350.681 76.149,350.780 76.087 C 350.991 75.954,343.125 68.000,342.783 68.000 C 342.655 68.000,344.362 69.845,346.575 72.100 M354.400 80.800 C 354.870 81.460,355.344 82.000,355.454 82.000 C 355.564 82.000,355.270 81.460,354.800 80.800 C 354.330 80.140,353.856 79.600,353.746 79.600 C 353.636 79.600,353.930 80.140,354.400 80.800 M43.196 83.606 C 42.724 84.269,42.427 85.034,42.537 85.306 C 42.684 85.670,42.745 85.658,42.768 85.262 C 42.786 84.966,43.172 84.201,43.627 83.562 C 44.082 82.923,44.364 82.400,44.254 82.400 C 44.144 82.400,43.668 82.943,43.196 83.606 M358.009 86.276 C 358.004 86.538,358.193 86.872,358.428 87.017 C 358.663 87.163,359.012 87.668,359.203 88.141 C 359.406 88.645,359.556 88.752,359.566 88.400 C 359.575 88.070,359.230 87.350,358.800 86.800 C 358.370 86.250,358.014 86.014,358.009 86.276 M38.039 93.660 C 37.509 95.180,37.488 95.482,37.948 94.980 C 38.331 94.562,38.917 92.400,38.647 92.400 C 38.554 92.400,38.281 92.967,38.039 93.660 M361.402 93.250 C 361.817 94.621,362.336 95.047,362.103 93.824 C 361.994 93.254,361.727 92.678,361.509 92.544 C 361.263 92.392,361.223 92.658,361.402 93.250 M363.528 99.832 C 363.616 100.588,363.811 101.283,363.961 101.376 C 364.110 101.468,364.161 100.925,364.072 100.168 C 363.984 99.412,363.789 98.717,363.639 98.624 C 363.490 98.532,363.439 99.075,363.528 99.832 M35.952 100.313 C 35.821 101.107,35.879 101.481,36.101 101.259 C 36.303 101.057,36.401 100.467,36.319 99.946 C 36.193 99.145,36.137 99.202,35.952 100.313 M35.067 105.067 C 34.698 105.435,34.729 112.309,35.100 112.538 C 35.265 112.640,35.400 110.941,35.400 108.762 C 35.400 106.583,35.385 104.800,35.367 104.800 C 35.348 104.800,35.213 104.920,35.067 105.067 M364.600 108.800 C 364.600 110.958,364.735 112.640,364.900 112.538 C 365.065 112.436,365.200 110.754,365.200 108.800 C 365.200 106.846,365.065 105.164,364.900 105.062 C 364.735 104.960,364.600 106.642,364.600 108.800 M109.293 108.800 C 109.293 109.570,109.375 109.885,109.476 109.500 C 109.576 109.115,109.576 108.485,109.476 108.100 C 109.375 107.715,109.293 108.030,109.293 108.800 M35.952 117.287 C 36.137 118.398,36.193 118.455,36.319 117.654 C 36.401 117.133,36.303 116.543,36.101 116.341 C 35.879 116.119,35.821 116.493,35.952 117.287 M363.820 116.500 C 363.462 117.653,363.337 119.162,363.614 118.992 C 363.777 118.890,363.985 118.176,364.075 117.404 C 364.239 116.002,364.113 115.555,363.820 116.500 M362.253 122.135 C 361.438 124.085,361.055 125.444,361.416 125.101 C 361.785 124.751,363.218 120.800,362.976 120.800 C 362.885 120.800,362.560 121.401,362.253 122.135 M37.995 123.581 C 38.204 124.311,38.486 125.019,38.620 125.154 C 38.996 125.529,38.344 123.052,37.955 122.627 C 37.768 122.422,37.785 122.851,37.995 123.581 M41.390 130.701 C 42.581 133.006,42.794 133.326,42.789 132.800 C 42.785 132.470,42.411 131.750,41.956 131.200 C 41.502 130.650,41.247 130.426,41.390 130.701 M357.821 131.424 C 357.452 131.988,357.206 132.601,357.275 132.786 C 357.344 132.971,357.711 132.510,358.092 131.762 C 358.909 130.153,358.768 129.978,357.821 131.424 M46.384 138.323 C 46.881 139.051,47.393 139.540,47.522 139.411 C 47.652 139.282,47.245 138.686,46.619 138.088 L 45.480 137.000 46.384 138.323 M353.243 138.237 C 352.747 138.807,352.424 139.358,352.527 139.460 C 352.629 139.562,353.105 139.096,353.584 138.423 C 354.648 136.929,354.466 136.830,353.243 138.237 M49.200 141.583 C 49.200 141.925,57.154 149.791,57.287 149.580 C 57.349 149.481,55.555 147.589,53.300 145.375 C 51.045 143.162,49.200 141.455,49.200 141.583 M346.575 145.500 C 344.362 147.755,342.655 149.600,342.783 149.600 C 343.125 149.600,350.991 141.646,350.780 141.513 C 350.681 141.451,348.789 143.245,346.575 145.500 M58.600 150.768 C 59.040 151.273,59.940 152.061,60.600 152.519 L 61.800 153.351 61.000 152.432 C 60.560 151.927,59.660 151.139,59.000 150.681 L 57.800 149.849 58.600 150.768 M340.696 151.016 C 340.093 151.575,339.600 152.149,339.600 152.291 C 339.600 152.433,340.140 152.032,340.800 151.400 C 341.903 150.344,342.172 150.000,341.896 150.000 C 341.839 150.000,341.299 150.457,340.696 151.016 M62.770 154.100 C 63.303 154.705,63.921 155.200,64.144 155.200 C 64.366 155.200,65.010 155.605,65.574 156.100 L 66.600 157.000 65.630 155.900 C 65.097 155.295,64.479 154.800,64.256 154.800 C 64.034 154.800,63.390 154.395,62.826 153.900 L 61.800 153.000 62.770 154.100 M337.000 154.000 C 336.602 154.440,336.065 154.800,335.808 154.800 C 335.550 154.800,334.903 155.274,334.370 155.854 C 333.553 156.742,333.526 156.842,334.200 156.489 C 335.142 155.995,338.309 153.241,337.962 153.217 C 337.831 153.207,337.398 153.560,337.000 154.000 M67.400 157.407 C 67.840 157.766,68.560 158.235,69.000 158.451 L 69.800 158.844 69.000 158.193 C 68.560 157.834,67.840 157.365,67.400 157.149 L 66.600 156.756 67.400 157.407 M331.700 157.646 C 330.337 158.519,329.895 159.106,331.100 158.443 C 332.018 157.939,333.456 156.827,333.200 156.819 C 333.090 156.816,332.415 157.188,331.700 157.646 M73.800 161.600 C 73.936 161.820,74.247 162.000,74.492 162.000 C 74.737 162.000,75.230 162.225,75.588 162.500 C 75.946 162.775,75.815 162.595,75.297 162.100 C 74.349 161.194,73.341 160.857,73.800 161.600 M324.703 162.100 C 324.185 162.595,324.054 162.775,324.412 162.500 C 324.770 162.225,325.263 162.000,325.508 162.000 C 325.753 162.000,326.064 161.820,326.200 161.600 C 326.659 160.857,325.651 161.194,324.703 162.100 M79.233 164.532 C 79.926 165.083,83.169 166.674,82.982 166.371 C 82.735 165.971,79.840 164.400,79.349 164.400 C 79.194 164.400,79.142 164.460,79.233 164.532 M83.774 167.157 C 83.924 167.401,84.312 167.600,84.635 167.600 C 84.958 167.600,86.298 168.143,87.611 168.806 C 88.925 169.469,90.000 169.922,90.000 169.812 C 90.000 169.562,85.735 167.408,84.450 167.009 C 83.797 166.807,83.586 166.853,83.774 167.157 M314.100 167.589 C 313.165 168.014,312.400 168.464,312.400 168.591 C 312.400 168.717,312.931 168.546,313.580 168.210 C 314.229 167.875,315.029 167.600,315.357 167.600 C 315.684 167.600,316.064 167.420,316.200 167.200 C 316.560 166.618,316.018 166.718,314.100 167.589 M91.200 170.600 C 91.750 170.914,92.470 171.171,92.800 171.170 C 93.130 171.169,92.794 170.906,92.054 170.584 C 90.351 169.845,89.894 169.853,91.200 170.600 M307.800 170.614 C 307.140 170.917,306.870 171.166,307.200 171.168 C 307.530 171.170,308.250 170.914,308.800 170.600 C 310.065 169.877,309.389 169.887,307.800 170.614 M93.770 171.552 C 93.890 171.745,94.395 172.006,94.894 172.132 C 95.768 172.352,95.773 172.340,95.024 171.780 C 94.164 171.138,93.432 171.004,93.770 171.552 M304.976 171.780 C 304.227 172.340,304.232 172.352,305.106 172.132 C 305.605 172.006,306.110 171.745,306.230 171.552 C 306.568 171.004,305.836 171.138,304.976 171.780 M98.606 173.610 C 98.706 173.772,99.235 173.990,99.782 174.094 C 100.329 174.199,100.694 174.152,100.594 173.990 C 100.494 173.828,99.965 173.610,99.418 173.506 C 98.871 173.401,98.506 173.448,98.606 173.610 M300.600 173.485 C 299.375 173.780,298.998 174.328,300.176 174.103 C 300.746 173.994,301.310 173.746,301.430 173.552 C 301.549 173.359,301.592 173.221,301.524 173.246 C 301.456 173.272,301.040 173.379,300.600 173.485 M102.361 175.022 C 103.109 175.347,103.809 175.525,103.916 175.417 C 104.140 175.194,102.186 174.392,101.474 174.416 C 101.213 174.424,101.612 174.697,102.361 175.022 M296.800 175.000 C 295.494 175.747,295.951 175.755,297.654 175.016 C 298.394 174.694,298.730 174.431,298.400 174.430 C 298.070 174.429,297.350 174.686,296.800 175.000 M293.400 176.202 L 292.200 176.767 293.400 176.532 C 294.060 176.403,294.771 176.140,294.980 175.948 C 295.550 175.426,294.787 175.548,293.400 176.202 M108.600 177.200 C 109.040 177.389,109.670 177.544,110.000 177.544 C 110.378 177.544,110.304 177.417,109.800 177.200 C 109.360 177.011,108.730 176.856,108.400 176.856 C 108.022 176.856,108.096 176.983,108.600 177.200 M290.200 177.200 C 289.696 177.417,289.622 177.544,290.000 177.544 C 290.330 177.544,290.960 177.389,291.400 177.200 C 291.904 176.983,291.978 176.856,291.600 176.856 C 291.270 176.856,290.640 177.011,290.200 177.200 M111.027 177.955 C 111.452 178.344,113.929 178.996,113.554 178.620 C 113.419 178.486,112.711 178.204,111.981 177.995 C 111.251 177.785,110.822 177.768,111.027 177.955 M288.200 177.885 C 286.975 178.180,286.598 178.728,287.776 178.503 C 288.346 178.394,288.910 178.146,289.030 177.952 C 289.149 177.759,289.192 177.621,289.124 177.646 C 289.056 177.672,288.640 177.779,288.200 177.885 M115.546 179.416 C 116.286 179.737,117.096 179.993,117.346 179.984 C 117.596 179.976,117.194 179.706,116.454 179.384 C 115.714 179.063,114.904 178.807,114.654 178.816 C 114.404 178.824,114.806 179.094,115.546 179.416 M283.400 179.414 C 281.785 180.154,282.751 180.155,284.454 179.416 C 285.194 179.094,285.530 178.839,285.200 178.848 C 284.870 178.857,284.060 179.112,283.400 179.414 M119.034 180.372 C 119.420 180.734,122.344 181.441,122.000 181.089 C 121.890 180.976,121.095 180.691,120.234 180.456 C 119.373 180.221,118.833 180.183,119.034 180.372 M279.400 180.615 C 277.812 181.165,277.810 181.167,279.200 180.942 C 279.970 180.818,280.771 180.555,280.980 180.358 C 281.447 179.918,281.387 179.928,279.400 180.615 M123.400 181.573 C 123.840 181.751,124.830 182.008,125.600 182.145 L 127.000 182.393 125.600 181.827 C 124.830 181.516,123.840 181.259,123.400 181.256 L 122.600 181.251 123.400 181.573 M274.400 181.827 L 273.000 182.393 274.400 182.145 C 275.170 182.008,276.160 181.751,276.600 181.573 L 277.400 181.251 276.600 181.256 C 276.160 181.259,275.170 181.516,274.400 181.827 M127.800 182.800 C 128.911 183.278,129.695 183.278,129.400 182.800 C 129.264 182.580,128.668 182.413,128.076 182.428 C 127.115 182.453,127.086 182.493,127.800 182.800 M270.600 182.800 C 270.305 183.278,271.089 183.278,272.200 182.800 C 272.914 182.493,272.885 182.453,271.924 182.428 C 271.332 182.413,270.736 182.580,270.600 182.800 M132.000 183.797 C 133.598 184.416,135.560 184.584,134.980 184.052 C 134.771 183.860,133.700 183.603,132.600 183.479 L 130.600 183.255 132.000 183.797 M266.800 183.493 C 265.136 183.688,264.158 184.415,265.620 184.370 C 266.159 184.353,267.230 184.097,268.000 183.800 C 269.431 183.249,269.256 183.204,266.800 183.493 M137.000 184.750 C 137.440 184.935,138.520 185.199,139.400 185.337 C 140.415 185.495,140.708 185.464,140.200 185.250 C 139.760 185.065,138.680 184.801,137.800 184.663 C 136.785 184.505,136.492 184.536,137.000 184.750 M259.800 185.219 C 259.242 185.471,259.485 185.507,260.600 185.338 C 261.480 185.204,262.275 185.028,262.367 184.947 C 262.710 184.644,260.568 184.871,259.800 185.219 M144.200 186.228 C 145.300 186.534,146.560 186.776,147.000 186.765 C 147.440 186.755,146.900 186.496,145.800 186.191 C 144.700 185.885,143.440 185.643,143.000 185.653 C 142.560 185.663,143.100 185.922,144.200 186.228 M254.000 186.220 C 253.010 186.504,252.560 186.747,253.000 186.760 C 253.440 186.774,254.700 186.534,255.800 186.228 C 256.900 185.922,257.350 185.679,256.800 185.688 C 256.250 185.697,254.990 185.936,254.000 186.220 M150.000 187.200 C 150.550 187.376,151.630 187.517,152.400 187.514 L 153.800 187.508 152.200 187.177 C 150.063 186.735,148.596 186.750,150.000 187.200 M247.600 187.200 L 246.200 187.495 247.600 187.507 C 248.370 187.515,249.450 187.376,250.000 187.200 L 251.000 186.880 250.000 186.893 C 249.450 186.900,248.370 187.038,247.600 187.200 M154.941 188.014 C 156.715 188.541,160.702 188.904,160.000 188.474 C 159.670 188.273,158.140 188.010,156.600 187.891 C 154.762 187.749,154.192 187.791,154.941 188.014 M242.331 187.961 C 241.083 188.095,239.928 188.338,239.764 188.502 C 239.307 188.960,241.964 188.784,244.200 188.209 C 246.373 187.651,245.859 187.582,242.331 187.961 M163.800 189.209 C 164.680 189.383,166.930 189.622,168.800 189.738 L 172.200 189.951 168.200 189.413 C 163.795 188.821,161.246 188.703,163.800 189.209 M231.600 189.428 L 227.800 189.943 231.200 189.735 C 234.797 189.514,238.888 188.883,236.600 188.902 C 235.940 188.907,233.690 189.144,231.600 189.428 M177.400 190.391 C 178.940 190.571,182.990 190.813,186.400 190.929 C 191.547 191.103,191.852 191.086,188.200 190.828 C 180.301 190.268,174.262 190.024,177.400 190.391 M219.200 190.295 C 218.210 190.380,215.150 190.606,212.400 190.798 L 207.400 191.146 213.600 190.932 C 220.295 190.702,227.448 190.101,223.200 190.127 C 221.990 190.134,220.190 190.209,219.200 190.295 " stroke="none" fill="#8cb49c" fill-rule="evenodd"></path><path id="path3" d="M186.800 13.136 C 186.800 13.321,182.173 13.595,176.519 13.744 C 170.864 13.893,166.139 14.167,166.019 14.352 C 165.898 14.536,163.190 14.816,160.000 14.974 C 156.810 15.131,154.140 15.427,154.067 15.630 C 153.993 15.834,152.868 16.000,151.567 16.000 C 150.265 16.000,149.200 16.160,149.200 16.356 C 149.200 16.552,147.220 16.842,144.800 17.000 C 142.380 17.158,140.400 17.426,140.400 17.596 C 140.400 17.766,138.870 18.033,137.000 18.189 C 135.130 18.344,133.600 18.610,133.600 18.778 C 133.600 18.947,132.121 19.208,130.313 19.359 C 128.506 19.510,126.931 19.787,126.813 19.975 C 126.696 20.163,125.382 20.447,123.894 20.606 C 122.406 20.764,121.091 21.053,120.971 21.247 C 120.851 21.441,120.223 21.600,119.576 21.600 C 118.929 21.600,118.400 21.762,118.400 21.961 C 118.400 22.159,117.320 22.447,116.000 22.600 C 114.680 22.753,113.600 23.020,113.600 23.193 C 113.600 23.365,112.430 23.632,111.000 23.785 C 109.570 23.938,108.400 24.209,108.400 24.386 C 108.400 24.563,107.410 24.832,106.200 24.983 C 104.990 25.134,104.000 25.425,104.000 25.629 C 104.000 25.833,103.640 26.000,103.200 26.000 C 102.760 26.000,102.400 26.155,102.400 26.344 C 102.400 26.534,101.469 26.799,100.330 26.934 C 99.192 27.069,98.157 27.346,98.030 27.550 C 97.904 27.754,96.945 28.050,95.900 28.206 C 94.855 28.363,94.000 28.639,94.000 28.821 C 94.000 29.002,93.190 29.272,92.200 29.421 C 91.210 29.569,90.400 29.830,90.400 30.000 C 90.400 30.170,89.590 30.431,88.600 30.579 C 87.610 30.728,86.800 31.018,86.800 31.225 C 86.800 31.431,86.440 31.600,86.000 31.600 C 85.560 31.600,85.200 31.769,85.200 31.975 C 85.200 32.182,84.390 32.472,83.400 32.621 C 82.410 32.769,81.600 33.048,81.600 33.241 C 81.600 33.433,80.880 33.706,80.000 33.846 C 79.120 33.987,78.400 34.245,78.400 34.419 C 78.400 34.594,77.860 34.855,77.200 35.000 C 76.540 35.145,76.000 35.429,76.000 35.632 C 76.000 35.834,75.550 36.000,75.000 36.000 C 74.450 36.000,74.000 36.166,74.000 36.368 C 74.000 36.571,73.460 36.855,72.800 37.000 C 72.140 37.145,71.600 37.415,71.600 37.600 C 71.600 37.785,71.060 38.055,70.400 38.200 C 69.740 38.345,69.200 38.606,69.200 38.781 C 69.200 38.955,68.480 39.213,67.600 39.354 C 66.720 39.494,66.000 39.773,66.000 39.973 C 66.000 40.173,65.460 40.455,64.800 40.600 C 64.140 40.745,63.600 41.029,63.600 41.232 C 63.600 41.434,63.330 41.600,63.000 41.600 C 62.670 41.600,62.400 41.777,62.400 41.992 C 62.400 42.208,61.950 42.498,61.400 42.636 C 60.850 42.774,60.400 43.033,60.400 43.212 C 60.400 43.390,59.860 43.655,59.200 43.800 C 58.540 43.945,58.000 44.221,58.000 44.414 C 58.000 44.606,57.376 44.881,56.614 45.024 C 55.778 45.181,55.135 45.574,54.996 46.014 C 54.868 46.416,54.232 46.861,53.582 47.004 C 52.932 47.147,52.400 47.426,52.400 47.624 C 52.400 47.822,51.950 48.098,51.400 48.236 C 50.850 48.374,50.400 48.628,50.400 48.800 C 50.400 48.972,49.950 49.226,49.400 49.364 C 48.850 49.502,48.400 49.792,48.400 50.008 C 48.400 50.223,48.124 50.400,47.787 50.400 C 47.451 50.400,47.071 50.670,46.945 51.000 C 46.818 51.330,46.455 51.600,46.138 51.600 C 45.821 51.600,45.145 52.050,44.635 52.600 C 44.125 53.150,43.498 53.600,43.242 53.600 C 42.985 53.600,42.671 53.870,42.545 54.200 C 42.418 54.530,42.001 54.800,41.617 54.800 C 41.233 54.800,40.506 55.340,40.000 56.000 C 39.494 56.660,38.913 57.200,38.709 57.200 C 38.505 57.200,37.798 57.740,37.138 58.400 C 36.478 59.060,35.769 59.600,35.562 59.600 C 34.951 59.600,22.915 71.809,22.625 72.723 C 22.479 73.183,22.008 73.670,21.580 73.806 C 21.151 73.943,20.800 74.284,20.800 74.566 C 20.800 74.847,20.440 75.493,20.000 76.000 C 19.560 76.507,19.200 77.146,19.200 77.418 C 19.200 77.691,18.930 78.018,18.600 78.145 C 18.270 78.271,18.000 78.651,18.000 78.987 C 18.000 79.324,17.840 79.600,17.643 79.600 C 17.447 79.600,17.174 80.050,17.036 80.600 C 16.898 81.150,16.608 81.600,16.392 81.600 C 16.177 81.600,16.000 81.870,16.000 82.200 C 16.000 82.530,15.834 82.800,15.632 82.800 C 15.429 82.800,15.145 83.340,15.000 84.000 C 14.855 84.660,14.591 85.200,14.413 85.200 C 14.235 85.200,13.971 85.830,13.826 86.600 C 13.682 87.370,13.403 88.000,13.206 88.000 C 13.010 88.000,12.728 88.810,12.579 89.800 C 12.431 90.790,12.150 91.600,11.955 91.600 C 11.760 91.600,11.600 91.870,11.600 92.200 C 11.600 92.530,11.438 92.800,11.239 92.800 C 11.041 92.800,10.749 93.925,10.591 95.300 C 10.433 96.675,10.100 97.928,9.852 98.085 C 9.203 98.495,9.203 301.505,9.852 301.915 C 10.100 302.072,10.433 303.325,10.591 304.700 C 10.749 306.075,11.041 307.200,11.239 307.200 C 11.438 307.200,11.600 307.470,11.600 307.800 C 11.600 308.130,11.760 308.400,11.955 308.400 C 12.150 308.400,12.431 309.210,12.579 310.200 C 12.728 311.190,12.998 312.000,13.180 312.000 C 13.362 312.000,13.629 312.630,13.774 313.400 C 13.918 314.170,14.194 314.800,14.386 314.800 C 14.579 314.800,14.855 315.340,15.000 316.000 C 15.145 316.660,15.429 317.200,15.632 317.200 C 15.834 317.200,16.000 317.470,16.000 317.800 C 16.000 318.130,16.177 318.400,16.392 318.400 C 16.608 318.400,16.898 318.850,17.036 319.400 C 17.174 319.950,17.447 320.400,17.643 320.400 C 17.840 320.400,18.000 320.676,18.000 321.013 C 18.000 321.349,18.270 321.729,18.600 321.855 C 18.930 321.982,19.200 322.386,19.200 322.754 C 19.200 323.121,19.560 323.730,20.000 324.107 C 20.440 324.484,20.800 325.052,20.800 325.369 C 20.800 325.686,21.151 326.057,21.580 326.194 C 22.008 326.330,22.479 326.820,22.627 327.284 C 22.925 328.223,34.914 340.400,35.541 340.400 C 35.760 340.400,36.478 340.940,37.138 341.600 C 37.798 342.260,38.487 342.808,38.669 342.817 C 38.851 342.826,39.442 343.366,39.981 344.017 C 40.521 344.668,41.267 345.200,41.638 345.200 C 42.010 345.200,42.418 345.470,42.545 345.800 C 42.671 346.130,43.008 346.400,43.293 346.400 C 43.577 346.400,44.148 346.850,44.561 347.400 C 44.974 347.950,45.628 348.400,46.013 348.400 C 46.399 348.400,46.818 348.670,46.945 349.000 C 47.071 349.330,47.451 349.600,47.787 349.600 C 48.124 349.600,48.400 349.777,48.400 349.992 C 48.400 350.208,48.850 350.498,49.400 350.636 C 49.950 350.774,50.400 351.028,50.400 351.200 C 50.400 351.372,50.850 351.626,51.400 351.764 C 51.950 351.902,52.400 352.192,52.400 352.408 C 52.400 352.623,52.670 352.800,53.000 352.800 C 53.330 352.800,53.600 352.980,53.600 353.200 C 53.600 353.420,53.876 353.600,54.213 353.600 C 54.549 353.600,54.922 353.852,55.040 354.161 C 55.159 354.469,55.873 354.837,56.628 354.979 C 57.382 355.120,58.000 355.394,58.000 355.586 C 58.000 355.779,58.540 356.055,59.200 356.200 C 59.860 356.345,60.400 356.629,60.400 356.832 C 60.400 357.034,60.670 357.200,61.000 357.200 C 61.330 357.200,61.600 357.377,61.600 357.592 C 61.600 357.808,62.050 358.098,62.600 358.236 C 63.150 358.374,63.600 358.633,63.600 358.812 C 63.600 358.990,64.140 359.255,64.800 359.400 C 65.460 359.545,66.000 359.827,66.000 360.027 C 66.000 360.227,66.720 360.506,67.600 360.646 C 68.480 360.787,69.200 361.045,69.200 361.219 C 69.200 361.394,69.740 361.655,70.400 361.800 C 71.060 361.945,71.600 362.229,71.600 362.432 C 71.600 362.634,71.870 362.800,72.200 362.800 C 72.530 362.800,72.800 362.978,72.800 363.195 C 72.800 363.413,73.520 363.706,74.400 363.846 C 75.280 363.987,76.000 364.245,76.000 364.419 C 76.000 364.594,76.540 364.855,77.200 365.000 C 77.860 365.145,78.400 365.406,78.400 365.581 C 78.400 365.755,79.120 366.013,80.000 366.154 C 80.880 366.294,81.600 366.587,81.600 366.805 C 81.600 367.022,82.050 367.200,82.600 367.200 C 83.150 367.200,83.600 367.364,83.600 367.565 C 83.600 367.766,84.320 368.051,85.200 368.200 C 86.080 368.349,86.800 368.623,86.800 368.811 C 86.800 368.998,87.610 369.272,88.600 369.421 C 89.590 369.569,90.400 369.830,90.400 370.000 C 90.400 370.170,91.210 370.431,92.200 370.579 C 93.190 370.728,94.000 371.001,94.000 371.187 C 94.000 371.373,94.900 371.649,96.000 371.800 C 97.100 371.951,98.000 372.238,98.000 372.438 C 98.000 372.637,98.360 372.800,98.800 372.800 C 99.240 372.800,99.600 372.955,99.600 373.144 C 99.600 373.334,100.531 373.599,101.670 373.734 C 102.808 373.869,103.847 374.152,103.977 374.363 C 104.108 374.575,105.157 374.873,106.308 375.025 C 107.458 375.178,108.400 375.446,108.400 375.620 C 108.400 375.794,109.570 376.062,111.000 376.215 C 112.430 376.368,113.600 376.652,113.600 376.847 C 113.600 377.041,114.140 377.200,114.800 377.200 C 115.460 377.200,116.000 377.362,116.000 377.561 C 116.000 377.759,117.080 378.047,118.400 378.200 C 119.720 378.353,120.800 378.618,120.800 378.788 C 120.800 378.958,122.104 379.225,123.697 379.382 C 125.291 379.539,126.692 379.825,126.811 380.017 C 126.929 380.210,128.506 380.490,130.313 380.641 C 132.121 380.792,133.600 381.053,133.600 381.222 C 133.600 381.390,135.130 381.656,137.000 381.811 C 138.870 381.967,140.400 382.253,140.400 382.447 C 140.400 382.641,141.390 382.800,142.600 382.800 C 143.810 382.800,144.800 382.960,144.800 383.156 C 144.800 383.352,146.825 383.644,149.300 383.804 C 151.775 383.964,153.891 384.239,154.003 384.415 C 154.115 384.590,156.815 384.864,160.003 385.023 C 163.191 385.182,165.898 385.464,166.019 385.648 C 166.139 385.833,170.864 386.107,176.519 386.256 C 182.173 386.405,186.800 386.679,186.800 386.864 C 186.800 387.049,192.830 387.200,200.200 387.200 C 207.570 387.200,213.600 387.049,213.600 386.864 C 213.600 386.678,218.137 386.404,223.683 386.253 C 229.228 386.102,233.863 385.829,233.983 385.646 C 234.102 385.462,236.809 385.182,239.997 385.023 C 243.185 384.864,245.885 384.590,245.997 384.415 C 246.109 384.239,248.225 383.964,250.700 383.804 C 253.175 383.644,255.200 383.352,255.200 383.156 C 255.200 382.960,256.190 382.800,257.400 382.800 C 258.610 382.800,259.600 382.646,259.600 382.458 C 259.600 382.269,261.079 381.992,262.887 381.841 C 264.694 381.690,266.269 381.418,266.387 381.235 C 266.504 381.053,268.175 380.774,270.100 380.616 C 272.025 380.458,273.600 380.175,273.600 379.988 C 273.600 379.801,274.860 379.524,276.400 379.373 C 277.940 379.221,279.200 378.958,279.200 378.788 C 279.200 378.618,280.280 378.353,281.600 378.200 C 282.920 378.047,284.000 377.759,284.000 377.561 C 284.000 377.362,284.540 377.200,285.200 377.200 C 285.860 377.200,286.400 377.041,286.400 376.847 C 286.400 376.652,287.570 376.368,289.000 376.215 C 290.430 376.062,291.600 375.791,291.600 375.614 C 291.600 375.437,292.590 375.168,293.800 375.017 C 295.010 374.866,296.000 374.588,296.000 374.400 C 296.000 374.212,296.990 373.934,298.200 373.783 C 299.410 373.632,300.400 373.349,300.400 373.154 C 300.400 372.959,300.760 372.800,301.200 372.800 C 301.640 372.800,302.000 372.637,302.000 372.438 C 302.000 372.238,302.900 371.951,304.000 371.800 C 305.100 371.649,306.000 371.382,306.000 371.208 C 306.000 371.034,306.810 370.769,307.800 370.621 C 308.790 370.472,309.600 370.199,309.600 370.013 C 309.600 369.827,310.500 369.551,311.600 369.400 C 312.700 369.249,313.600 368.970,313.600 368.781 C 313.600 368.591,314.230 368.318,315.000 368.174 C 315.770 368.029,316.400 367.751,316.400 367.555 C 316.400 367.360,316.850 367.200,317.400 367.200 C 317.950 367.200,318.400 367.022,318.400 366.805 C 318.400 366.587,319.120 366.294,320.000 366.154 C 320.880 366.013,321.600 365.755,321.600 365.581 C 321.600 365.406,322.140 365.145,322.800 365.000 C 323.460 364.855,324.000 364.594,324.000 364.419 C 324.000 364.245,324.720 363.987,325.600 363.846 C 326.480 363.706,327.200 363.413,327.200 363.195 C 327.200 362.978,327.470 362.800,327.800 362.800 C 328.130 362.800,328.400 362.634,328.400 362.432 C 328.400 362.229,328.940 361.945,329.600 361.800 C 330.260 361.655,330.800 361.394,330.800 361.219 C 330.800 361.045,331.520 360.787,332.400 360.646 C 333.280 360.506,334.000 360.227,334.000 360.027 C 334.000 359.827,334.540 359.545,335.200 359.400 C 335.860 359.255,336.400 358.971,336.400 358.768 C 336.400 358.566,336.766 358.400,337.213 358.400 C 337.659 358.400,338.129 358.130,338.255 357.800 C 338.382 357.470,338.736 357.200,339.043 357.200 C 339.349 357.200,339.600 357.034,339.600 356.832 C 339.600 356.629,340.140 356.345,340.800 356.200 C 341.460 356.055,342.000 355.791,342.000 355.613 C 342.000 355.435,342.613 355.174,343.361 355.034 C 344.110 354.893,344.824 354.513,344.949 354.189 C 345.073 353.865,345.451 353.600,345.787 353.600 C 346.124 353.600,346.400 353.420,346.400 353.200 C 346.400 352.980,346.741 352.800,347.157 352.800 C 347.574 352.800,348.018 352.530,348.145 352.200 C 348.271 351.870,348.651 351.600,348.987 351.600 C 349.324 351.600,349.600 351.420,349.600 351.200 C 349.600 350.980,349.857 350.800,350.171 350.800 C 350.486 350.800,350.989 350.554,351.290 350.253 C 351.591 349.952,352.234 349.580,352.719 349.426 C 353.203 349.272,353.600 348.978,353.600 348.773 C 353.600 348.568,353.845 348.400,354.144 348.400 C 354.443 348.400,355.018 347.961,355.421 347.424 C 355.824 346.887,356.569 346.344,357.077 346.216 C 357.585 346.089,358.000 345.808,358.000 345.592 C 358.000 345.377,358.233 345.200,358.519 345.200 C 358.804 345.200,359.479 344.668,360.019 344.017 C 360.558 343.366,361.143 342.826,361.317 342.817 C 361.682 342.797,362.566 342.108,363.517 341.100 C 363.880 340.715,364.337 340.400,364.532 340.400 C 364.948 340.400,377.200 328.187,377.200 327.772 C 377.200 327.618,377.629 327.094,378.153 326.608 C 378.677 326.122,379.224 325.353,379.368 324.899 C 379.513 324.445,379.894 323.973,380.215 323.850 C 380.537 323.726,380.800 323.279,380.800 322.855 C 380.800 322.432,381.070 321.982,381.400 321.855 C 381.730 321.729,382.000 321.349,382.000 321.013 C 382.000 320.676,382.180 320.400,382.400 320.400 C 382.620 320.400,382.800 320.130,382.800 319.800 C 382.800 319.470,382.977 319.200,383.192 319.200 C 383.408 319.200,383.698 318.750,383.836 318.200 C 383.974 317.650,384.233 317.200,384.412 317.200 C 384.590 317.200,384.855 316.660,385.000 316.000 C 385.145 315.340,385.421 314.800,385.614 314.800 C 385.806 314.800,386.082 314.170,386.226 313.400 C 386.371 312.630,386.649 312.000,386.845 312.000 C 387.040 312.000,387.200 311.640,387.200 311.200 C 387.200 310.760,387.357 310.400,387.549 310.400 C 387.741 310.400,388.013 309.680,388.154 308.800 C 388.294 307.920,388.570 307.200,388.765 307.200 C 388.961 307.200,389.251 306.075,389.409 304.700 C 389.567 303.325,389.900 302.072,390.148 301.915 C 390.482 301.704,390.600 275.098,390.600 200.000 C 390.600 124.902,390.482 98.296,390.148 98.085 C 389.900 97.928,389.567 96.675,389.409 95.300 C 389.251 93.925,388.961 92.800,388.765 92.800 C 388.570 92.800,388.294 92.080,388.154 91.200 C 388.013 90.320,387.741 89.600,387.549 89.600 C 387.357 89.600,387.200 89.240,387.200 88.800 C 387.200 88.360,387.028 88.000,386.818 88.000 C 386.608 88.000,386.318 87.370,386.174 86.600 C 386.029 85.830,385.771 85.200,385.599 85.200 C 385.427 85.200,385.163 84.707,385.012 84.104 C 384.860 83.501,384.616 82.916,384.468 82.804 C 384.064 82.497,383.207 81.091,382.942 80.300 C 382.812 79.915,382.548 79.600,382.353 79.600 C 382.159 79.600,382.000 79.324,382.000 78.987 C 382.000 78.651,381.730 78.271,381.400 78.145 C 381.070 78.018,380.800 77.691,380.800 77.418 C 380.800 77.146,380.440 76.507,380.000 76.000 C 379.560 75.493,379.200 74.917,379.200 74.720 C 379.200 74.523,378.750 73.945,378.200 73.435 C 377.650 72.925,377.200 72.384,377.200 72.232 C 377.200 71.835,364.910 59.600,364.511 59.600 C 364.328 59.600,363.880 59.285,363.517 58.900 C 362.515 57.839,361.673 57.200,361.277 57.200 C 361.080 57.200,360.506 56.660,360.000 56.000 C 359.494 55.340,358.837 54.800,358.540 54.800 C 358.243 54.800,358.000 54.632,358.000 54.427 C 358.000 54.222,357.595 53.927,357.100 53.771 C 356.605 53.616,355.828 53.109,355.374 52.644 C 354.517 51.768,353.433 50.993,352.400 50.520 C 352.070 50.369,351.562 50.010,351.271 49.722 C 350.981 49.435,350.486 49.200,350.171 49.200 C 349.857 49.200,349.600 49.020,349.600 48.800 C 349.600 48.580,349.324 48.400,348.987 48.400 C 348.651 48.400,348.278 48.148,348.160 47.839 C 348.041 47.531,347.337 47.165,346.595 47.025 C 345.757 46.868,345.152 46.479,345.000 46.000 C 344.847 45.517,344.240 45.131,343.377 44.969 C 342.620 44.827,342.000 44.565,342.000 44.387 C 342.000 44.209,341.460 43.945,340.800 43.800 C 340.140 43.655,339.600 43.371,339.600 43.168 C 339.600 42.966,339.324 42.800,338.987 42.800 C 338.651 42.800,338.271 42.530,338.145 42.200 C 338.018 41.870,337.574 41.600,337.157 41.600 C 336.741 41.600,336.400 41.434,336.400 41.232 C 336.400 41.029,335.860 40.745,335.200 40.600 C 334.540 40.455,334.000 40.173,334.000 39.973 C 334.000 39.773,333.280 39.494,332.400 39.354 C 331.520 39.213,330.800 38.955,330.800 38.781 C 330.800 38.606,330.260 38.345,329.600 38.200 C 328.940 38.055,328.400 37.785,328.400 37.600 C 328.400 37.415,327.860 37.145,327.200 37.000 C 326.540 36.855,326.000 36.571,326.000 36.368 C 326.000 36.166,325.550 36.000,325.000 36.000 C 324.450 36.000,324.000 35.834,324.000 35.632 C 324.000 35.429,323.460 35.145,322.800 35.000 C 322.140 34.855,321.600 34.594,321.600 34.419 C 321.600 34.245,320.880 33.987,320.000 33.846 C 319.120 33.706,318.400 33.433,318.400 33.241 C 318.400 33.048,317.590 32.769,316.600 32.621 C 315.610 32.472,314.800 32.226,314.800 32.073 C 314.800 31.665,312.676 30.795,311.030 30.527 C 310.243 30.400,309.600 30.150,309.600 29.972 C 309.600 29.794,308.790 29.528,307.800 29.379 C 306.810 29.231,306.000 28.966,306.000 28.792 C 306.000 28.618,305.100 28.351,304.000 28.200 C 302.900 28.049,302.000 27.768,302.000 27.576 C 302.000 27.384,301.100 27.108,300.000 26.962 C 298.900 26.816,298.000 26.540,298.000 26.348 C 298.000 26.157,297.550 26.000,297.000 26.000 C 296.450 26.000,296.000 25.833,296.000 25.629 C 296.000 25.425,295.010 25.134,293.800 24.983 C 292.590 24.832,291.600 24.563,291.600 24.386 C 291.600 24.209,290.430 23.938,289.000 23.785 C 287.570 23.632,286.400 23.365,286.400 23.193 C 286.400 23.020,285.320 22.753,284.000 22.600 C 282.680 22.447,281.600 22.159,281.600 21.961 C 281.600 21.762,281.060 21.600,280.400 21.600 C 279.740 21.600,279.200 21.443,279.200 21.252 C 279.200 21.060,277.940 20.779,276.400 20.627 C 274.860 20.476,273.600 20.199,273.600 20.012 C 273.600 19.825,272.025 19.542,270.100 19.384 C 268.175 19.226,266.504 18.947,266.387 18.765 C 266.269 18.582,264.694 18.310,262.887 18.159 C 261.079 18.008,259.600 17.751,259.600 17.586 C 259.600 17.422,257.620 17.158,255.200 17.000 C 252.780 16.842,250.800 16.552,250.800 16.356 C 250.800 16.160,249.735 16.000,248.433 16.000 C 247.132 16.000,246.007 15.834,245.933 15.630 C 245.860 15.427,243.190 15.131,240.000 14.974 C 236.810 14.816,234.102 14.538,233.983 14.354 C 233.863 14.171,229.228 13.898,223.683 13.747 C 218.137 13.596,213.600 13.322,213.600 13.136 C 213.600 12.951,207.570 12.800,200.200 12.800 C 192.830 12.800,186.800 12.951,186.800 13.136 M215.000 26.400 C 215.137 26.622,216.970 26.800,219.124 26.799 C 223.250 26.799,232.678 27.634,239.600 28.614 C 241.910 28.941,244.284 29.206,244.876 29.204 C 245.468 29.202,246.048 29.354,246.164 29.542 C 246.280 29.730,248.038 30.009,250.072 30.162 C 252.105 30.316,253.955 30.592,254.184 30.776 C 254.413 30.960,255.906 31.239,257.502 31.396 C 259.097 31.553,260.503 31.843,260.625 32.041 C 260.747 32.238,261.306 32.400,261.866 32.400 C 262.426 32.400,263.901 32.646,265.142 32.946 C 266.384 33.247,268.840 33.807,270.600 34.191 C 272.360 34.576,274.089 35.035,274.441 35.212 C 274.794 35.389,275.964 35.661,277.041 35.817 C 278.119 35.973,279.180 36.233,279.400 36.395 C 279.620 36.557,280.340 36.811,281.000 36.960 C 283.264 37.469,289.000 39.316,289.380 39.658 C 289.589 39.846,290.224 40.000,290.791 40.000 C 291.358 40.000,292.177 40.247,292.611 40.550 C 293.045 40.852,294.165 41.228,295.100 41.385 C 296.035 41.542,296.800 41.834,296.800 42.035 C 296.800 42.236,297.177 42.400,297.638 42.400 C 298.099 42.400,298.954 42.651,299.538 42.957 C 300.122 43.263,301.410 43.828,302.400 44.211 C 303.390 44.595,304.767 45.154,305.460 45.454 C 306.154 45.754,306.863 46.000,307.036 46.000 C 307.323 46.000,314.422 49.354,316.800 50.614 C 317.350 50.905,319.238 51.887,320.996 52.797 C 322.754 53.706,324.478 54.709,324.827 55.025 C 325.177 55.341,325.609 55.600,325.786 55.600 C 326.152 55.600,331.691 59.175,332.000 59.610 C 332.110 59.765,332.605 60.019,333.100 60.173 C 333.595 60.328,334.000 60.622,334.000 60.827 C 334.000 61.032,334.251 61.200,334.557 61.200 C 334.864 61.200,335.218 61.470,335.345 61.800 C 335.471 62.130,335.817 62.400,336.113 62.400 C 336.408 62.400,337.168 62.940,337.800 63.600 C 338.432 64.260,339.085 64.800,339.249 64.800 C 340.138 64.800,354.000 78.496,354.000 79.374 C 354.000 79.490,354.724 80.532,355.609 81.692 C 356.493 82.851,357.323 84.205,357.452 84.700 C 357.581 85.195,357.812 85.600,357.964 85.600 C 358.117 85.600,358.862 86.815,359.621 88.300 C 360.379 89.785,361.129 91.058,361.287 91.129 C 361.445 91.200,361.696 91.903,361.844 92.692 C 361.992 93.480,362.356 94.592,362.654 95.163 C 362.952 95.733,363.196 96.594,363.198 97.076 C 363.199 97.558,363.380 98.064,363.600 98.200 C 363.820 98.336,364.000 99.031,364.000 99.744 C 364.000 100.457,364.225 101.265,364.500 101.540 C 364.861 101.901,365.000 103.925,365.000 108.800 C 365.000 113.675,364.861 115.699,364.500 116.060 C 364.225 116.335,364.000 117.143,364.000 117.856 C 364.000 118.569,363.820 119.264,363.600 119.400 C 363.380 119.536,363.199 120.042,363.198 120.524 C 363.196 121.006,362.943 121.883,362.635 122.473 C 362.327 123.063,361.946 124.143,361.787 124.873 C 361.629 125.603,361.387 126.290,361.250 126.400 C 361.112 126.510,360.460 127.666,359.800 128.969 C 359.140 130.272,358.418 131.532,358.195 131.769 C 357.973 132.006,357.589 132.650,357.343 133.200 C 355.389 137.562,338.409 155.200,336.163 155.200 C 336.027 155.200,335.233 155.740,334.400 156.400 C 333.567 157.060,332.701 157.600,332.476 157.600 C 332.251 157.600,332.007 157.735,331.933 157.900 C 331.742 158.330,329.302 160.000,328.865 160.000 C 328.663 160.000,328.262 160.285,327.973 160.633 C 327.684 160.981,326.860 161.566,326.141 161.933 C 321.428 164.339,318.103 166.176,317.264 166.835 C 316.730 167.256,316.022 167.600,315.691 167.600 C 315.204 167.600,307.942 170.913,305.105 172.429 C 304.723 172.633,304.211 172.800,303.966 172.800 C 303.492 172.800,301.338 173.674,299.468 174.624 C 298.845 174.941,298.000 175.200,297.591 175.200 C 297.182 175.200,296.749 175.360,296.628 175.555 C 296.507 175.750,295.741 176.035,294.925 176.188 C 294.109 176.341,293.077 176.721,292.631 177.033 C 292.186 177.345,291.333 177.600,290.735 177.600 C 290.137 177.600,289.549 177.760,289.428 177.955 C 289.307 178.150,288.555 178.432,287.755 178.582 C 286.956 178.732,286.009 179.016,285.651 179.213 C 284.693 179.741,276.306 182.000,275.305 182.000 C 274.833 182.000,274.344 182.167,274.217 182.372 C 274.091 182.577,272.998 182.868,271.788 183.019 C 270.579 183.170,269.491 183.452,269.371 183.647 C 269.251 183.841,268.770 184.000,268.302 184.000 C 267.834 184.000,266.360 184.253,265.026 184.562 C 258.386 186.102,250.032 187.604,248.124 187.602 C 247.202 187.601,246.346 187.763,246.223 187.963 C 246.100 188.162,244.244 188.443,242.099 188.587 C 239.955 188.732,237.840 188.999,237.400 189.181 C 235.108 190.131,214.248 191.328,200.000 191.328 C 185.752 191.328,164.892 190.131,162.600 189.181 C 162.160 188.999,160.045 188.732,157.901 188.587 C 155.756 188.443,153.900 188.162,153.777 187.963 C 153.654 187.763,152.847 187.600,151.985 187.600 C 150.137 187.600,141.319 186.024,134.974 184.560 C 133.640 184.252,132.166 184.000,131.698 184.000 C 131.230 184.000,130.751 183.844,130.633 183.653 C 130.515 183.462,129.498 183.183,128.374 183.034 C 127.250 182.885,126.031 182.616,125.665 182.437 C 125.084 182.151,122.325 181.394,116.600 179.949 C 115.720 179.727,114.707 179.390,114.349 179.200 C 113.991 179.010,113.044 178.732,112.245 178.582 C 111.445 178.432,110.693 178.150,110.572 177.955 C 110.451 177.760,109.863 177.600,109.265 177.600 C 108.667 177.600,107.823 177.353,107.389 177.051 C 106.955 176.749,105.976 176.366,105.213 176.200 C 104.450 176.034,103.550 175.760,103.213 175.590 C 102.876 175.421,101.790 174.969,100.800 174.587 C 99.810 174.204,98.433 173.646,97.740 173.346 C 97.046 173.046,96.296 172.800,96.072 172.800 C 95.848 172.800,95.155 172.537,94.532 172.214 C 91.010 170.393,84.820 167.600,84.306 167.600 C 83.977 167.600,83.270 167.256,82.736 166.835 C 82.201 166.415,80.287 165.290,78.482 164.335 C 73.135 161.508,72.776 161.303,72.041 160.637 C 71.654 160.287,71.209 160.000,71.052 160.000 C 70.677 160.000,68.238 158.284,68.067 157.900 C 67.993 157.735,67.749 157.600,67.524 157.600 C 67.299 157.600,66.433 157.060,65.600 156.400 C 64.767 155.740,63.958 155.200,63.804 155.200 C 63.649 155.200,62.329 154.165,60.869 152.900 C 59.410 151.635,57.956 150.420,57.638 150.200 C 56.792 149.614,49.124 141.972,48.194 140.788 C 47.758 140.232,46.725 138.942,45.900 137.921 C 45.075 136.900,44.400 135.871,44.400 135.633 C 44.400 135.395,44.261 135.200,44.091 135.200 C 43.921 135.200,43.428 134.525,42.995 133.700 C 42.562 132.875,42.093 132.110,41.954 132.000 C 41.515 131.654,40.000 128.635,40.000 128.106 C 40.000 127.828,39.862 127.600,39.694 127.600 C 39.385 127.600,38.000 124.692,38.000 124.043 C 38.000 123.850,37.731 123.176,37.402 122.546 C 37.074 121.916,36.804 121.006,36.802 120.524 C 36.801 120.042,36.632 119.543,36.427 119.417 C 36.222 119.290,35.928 117.745,35.774 115.984 C 35.621 114.223,35.339 112.686,35.148 112.568 C 34.693 112.287,34.694 104.800,35.148 104.800 C 35.340 104.800,35.622 103.363,35.775 101.607 C 35.928 99.851,36.222 98.310,36.427 98.183 C 36.632 98.057,36.801 97.558,36.802 97.076 C 36.804 96.594,37.074 95.684,37.402 95.054 C 37.731 94.424,38.000 93.699,38.000 93.444 C 38.000 92.891,41.480 85.936,41.915 85.620 C 42.081 85.499,42.416 84.950,42.661 84.400 C 44.311 80.686,58.973 64.800,60.751 64.800 C 60.915 64.800,61.568 64.260,62.200 63.600 C 62.832 62.940,63.515 62.400,63.717 62.400 C 63.919 62.400,64.767 61.860,65.600 61.200 C 66.433 60.540,67.299 60.000,67.524 60.000 C 67.749 60.000,67.993 59.849,68.067 59.665 C 68.246 59.214,73.784 55.600,74.296 55.600 C 74.519 55.600,74.896 55.366,75.134 55.079 C 75.372 54.793,76.969 53.863,78.683 53.012 C 80.397 52.161,82.229 51.135,82.754 50.732 C 83.279 50.329,84.119 50.000,84.621 50.000 C 85.123 50.000,85.593 49.865,85.667 49.700 C 85.853 49.282,92.359 46.109,93.704 45.781 C 94.311 45.633,94.906 45.351,95.027 45.156 C 95.148 44.960,95.524 44.800,95.863 44.800 C 96.486 44.800,98.460 44.029,100.532 42.976 C 101.155 42.659,102.000 42.400,102.409 42.400 C 102.818 42.400,103.251 42.240,103.372 42.045 C 103.493 41.850,104.259 41.565,105.075 41.412 C 105.891 41.259,106.923 40.879,107.369 40.567 C 107.814 40.255,108.642 40.000,109.209 40.000 C 109.776 40.000,110.411 39.856,110.620 39.681 C 111.037 39.331,113.672 38.451,117.400 37.418 C 118.720 37.052,120.077 36.606,120.416 36.426 C 120.755 36.246,122.015 35.964,123.216 35.801 C 124.417 35.637,125.490 35.385,125.600 35.241 C 125.710 35.096,126.880 34.743,128.200 34.455 C 129.520 34.168,131.770 33.676,133.200 33.362 C 134.630 33.048,136.520 32.679,137.400 32.542 C 138.280 32.404,139.180 32.152,139.400 31.980 C 139.620 31.808,141.109 31.539,142.709 31.381 C 144.309 31.224,145.704 30.955,145.810 30.783 C 145.916 30.612,147.577 30.354,149.501 30.211 C 151.426 30.067,153.360 29.799,153.800 29.616 C 155.565 28.878,175.479 26.800,180.781 26.800 C 182.997 26.800,184.862 26.623,185.000 26.400 C 185.158 26.145,190.596 26.000,200.000 26.000 C 209.404 26.000,214.842 26.145,215.000 26.400 " stroke="none" fill="#1c643c" fill-rule="evenodd"></path><path id="path4" d="M185.060 26.300 C 184.958 26.465,186.162 26.551,187.737 26.491 C 192.610 26.304,193.174 26.131,189.124 26.064 C 186.992 26.029,185.163 26.135,185.060 26.300 M208.200 26.255 C 210.997 26.549,215.112 26.577,214.940 26.300 C 214.837 26.135,213.008 26.029,210.876 26.064 C 208.744 26.099,207.540 26.185,208.200 26.255 M176.100 27.087 C 176.705 27.178,177.695 27.178,178.300 27.087 C 178.905 26.995,178.410 26.920,177.200 26.920 C 175.990 26.920,175.495 26.995,176.100 27.087 M221.700 27.087 C 222.305 27.178,223.295 27.178,223.900 27.087 C 224.505 26.995,224.010 26.920,222.800 26.920 C 221.590 26.920,221.095 26.995,221.700 27.087 M172.300 27.482 C 172.795 27.578,173.605 27.578,174.100 27.482 C 174.595 27.387,174.190 27.309,173.200 27.309 C 172.210 27.309,171.805 27.387,172.300 27.482 M225.900 27.482 C 226.395 27.578,227.205 27.578,227.700 27.482 C 228.195 27.387,227.790 27.309,226.800 27.309 C 225.810 27.309,225.405 27.387,225.900 27.482 M236.600 28.423 C 237.480 28.605,238.650 28.744,239.200 28.731 C 239.841 28.716,239.626 28.589,238.600 28.377 C 237.720 28.195,236.550 28.056,236.000 28.069 C 235.359 28.084,235.574 28.211,236.600 28.423 M160.500 28.676 C 160.885 28.776,161.515 28.776,161.900 28.676 C 162.285 28.575,161.970 28.493,161.200 28.493 C 160.430 28.493,160.115 28.575,160.500 28.676 M113.800 38.400 C 113.296 38.617,113.222 38.744,113.600 38.744 C 113.930 38.744,114.560 38.589,115.000 38.400 C 115.504 38.183,115.578 38.056,115.200 38.056 C 114.870 38.056,114.240 38.211,113.800 38.400 M285.000 38.400 C 285.440 38.589,286.070 38.744,286.400 38.744 C 286.778 38.744,286.704 38.617,286.200 38.400 C 285.760 38.211,285.130 38.056,284.800 38.056 C 284.422 38.056,284.496 38.183,285.000 38.400 M52.792 71.900 L 49.000 75.800 52.900 72.008 C 56.522 68.486,56.982 68.000,56.692 68.000 C 56.633 68.000,54.878 69.755,52.792 71.900 M346.800 71.800 C 348.881 73.890,350.674 75.600,350.784 75.600 C 350.894 75.600,349.281 73.890,347.200 71.800 C 345.119 69.710,343.326 68.000,343.216 68.000 C 343.106 68.000,344.719 69.710,346.800 71.800 M364.432 103.076 C 364.414 103.998,364.542 104.841,364.716 104.948 C 364.890 105.056,364.967 104.482,364.887 103.672 C 364.669 101.458,364.467 101.195,364.432 103.076 M364.559 112.962 C 364.441 113.271,364.407 114.126,364.483 114.862 C 364.606 116.035,364.647 115.966,364.815 114.300 C 365.011 112.352,364.939 111.974,364.559 112.962 M351.775 140.500 L 350.600 141.800 351.900 140.625 C 352.615 139.979,353.200 139.394,353.200 139.325 C 353.200 139.016,352.870 139.288,351.775 140.500 M52.800 145.800 C 54.881 147.890,56.674 149.600,56.784 149.600 C 56.894 149.600,55.281 147.890,53.200 145.800 C 51.119 143.710,49.326 142.000,49.216 142.000 C 49.106 142.000,50.719 143.710,52.800 145.800 M346.792 145.900 L 343.000 149.800 346.900 146.008 C 349.045 143.922,350.800 142.167,350.800 142.108 C 350.800 141.818,350.314 142.278,346.792 145.900 M107.376 176.978 C 107.804 177.320,108.434 177.586,108.776 177.568 C 109.315 177.541,109.318 177.507,108.800 177.314 C 108.470 177.192,107.840 176.926,107.400 176.724 C 106.613 176.362,106.612 176.366,107.376 176.978 M135.800 184.800 C 136.240 184.989,136.870 185.144,137.200 185.144 C 137.578 185.144,137.504 185.017,137.000 184.800 C 136.560 184.611,135.930 184.456,135.600 184.456 C 135.222 184.456,135.296 184.583,135.800 184.800 M141.600 186.000 C 142.150 186.176,142.960 186.320,143.400 186.320 C 144.033 186.320,143.992 186.254,143.200 186.000 C 142.650 185.824,141.840 185.680,141.400 185.680 C 140.767 185.680,140.808 185.746,141.600 186.000 M256.800 186.000 C 255.456 186.431,256.908 186.431,258.600 186.000 C 259.678 185.726,259.698 185.694,258.800 185.687 C 258.250 185.683,257.350 185.824,256.800 186.000 M250.000 187.200 C 248.656 187.631,250.108 187.631,251.800 187.200 C 252.878 186.926,252.898 186.894,252.000 186.887 C 251.450 186.883,250.550 187.024,250.000 187.200 M172.705 190.283 C 173.202 190.379,173.922 190.375,174.305 190.275 C 174.687 190.175,174.280 190.096,173.400 190.101 C 172.520 190.105,172.207 190.187,172.705 190.283 M225.905 190.283 C 226.402 190.379,227.122 190.375,227.505 190.275 C 227.887 190.175,227.480 190.096,226.600 190.101 C 225.720 190.105,225.407 190.187,225.905 190.283 M176.100 190.687 C 176.705 190.778,177.695 190.778,178.300 190.687 C 178.905 190.595,178.410 190.520,177.200 190.520 C 175.990 190.520,175.495 190.595,176.100 190.687 M221.700 190.687 C 222.305 190.778,223.295 190.778,223.900 190.687 C 224.505 190.595,224.010 190.520,222.800 190.520 C 221.590 190.520,221.095 190.595,221.700 190.687 M196.100 191.498 C 198.245 191.570,201.755 191.570,203.900 191.498 C 206.045 191.426,204.290 191.367,200.000 191.367 C 195.710 191.367,193.955 191.426,196.100 191.498 " stroke="none" fill="#54b45c" fill-rule="evenodd"></path></g></svg>