<svg id="svg" version="1.1" xmlns="http://www.w3.org/2000/svg" xmlns:xlink="http://www.w3.org/1999/xlink" width="400" height="400" viewBox="0, 0, 400,400"><g id="svgg"><path id="path0" d="M0.000 200.000 L 0.000 400.000 200.000 400.000 L 400.000 400.000 400.000 200.000 L 400.000 0.000 200.000 0.000 L 0.000 0.000 0.000 200.000 M226.152 13.940 C 226.398 14.134,228.760 14.396,231.400 14.523 C 234.040 14.650,237.910 14.956,240.000 15.202 C 250.330 16.417,261.132 17.913,263.200 18.414 C 263.970 18.600,266.310 19.049,268.400 19.410 C 270.490 19.771,273.190 20.305,274.400 20.596 C 275.610 20.888,278.040 21.433,279.800 21.807 C 281.560 22.182,283.360 22.638,283.800 22.821 C 284.240 23.005,285.410 23.275,286.400 23.423 C 287.390 23.570,288.380 23.826,288.600 23.991 C 288.820 24.156,289.733 24.402,290.628 24.539 C 291.524 24.675,293.644 25.240,295.341 25.793 C 297.037 26.347,298.769 26.800,299.189 26.800 C 299.609 26.800,300.054 26.964,300.178 27.165 C 300.303 27.366,301.122 27.652,302.000 27.800 C 302.878 27.948,303.685 28.214,303.793 28.389 C 303.902 28.565,304.668 28.836,305.496 28.990 C 306.323 29.145,307.180 29.407,307.400 29.573 C 307.620 29.738,309.150 30.294,310.800 30.809 C 312.450 31.323,314.160 31.920,314.600 32.134 C 315.040 32.349,315.713 32.677,316.095 32.862 C 316.477 33.048,316.989 33.200,317.234 33.200 C 317.479 33.200,318.246 33.444,318.940 33.741 C 319.633 34.039,321.190 34.690,322.400 35.189 C 323.610 35.687,326.040 36.776,327.800 37.609 C 329.560 38.442,332.617 39.872,334.592 40.787 C 336.568 41.703,338.278 42.595,338.392 42.769 C 338.507 42.944,339.950 43.753,341.600 44.568 C 343.250 45.383,345.410 46.575,346.400 47.218 C 347.390 47.861,348.650 48.607,349.200 48.876 C 349.750 49.145,350.856 49.868,351.658 50.482 C 352.459 51.097,353.283 51.600,353.488 51.600 C 353.693 51.600,354.283 52.050,354.800 52.600 C 355.317 53.150,355.907 53.600,356.112 53.600 C 356.898 53.600,365.873 60.985,370.139 65.142 C 373.657 68.570,378.800 74.528,378.800 75.176 C 378.800 75.409,378.956 75.600,379.147 75.600 C 380.038 75.600,387.600 89.060,387.600 90.647 C 387.600 90.901,387.869 91.624,388.198 92.254 C 388.526 92.884,388.796 93.895,388.798 94.500 C 388.799 95.105,388.965 95.600,389.166 95.600 C 389.367 95.600,389.658 96.953,389.813 98.606 C 389.968 100.259,390.254 101.710,390.448 101.829 C 390.904 102.112,390.915 297.882,390.459 298.164 C 390.271 298.280,389.996 299.682,389.847 301.279 C 389.699 302.876,389.403 304.357,389.189 304.571 C 388.975 304.785,388.799 305.329,388.798 305.780 C 388.796 306.231,388.526 307.116,388.198 307.746 C 387.869 308.376,387.600 309.114,387.600 309.387 C 387.600 309.940,383.725 317.782,382.312 320.087 C 377.695 327.619,370.399 335.355,360.399 343.321 C 357.432 345.684,356.427 346.400,356.076 346.400 C 355.851 346.400,355.607 346.554,355.533 346.743 C 355.402 347.079,350.733 350.372,349.585 350.937 C 349.263 351.096,348.010 351.837,346.800 352.584 C 345.590 353.330,343.430 354.528,342.000 355.244 C 340.570 355.961,339.130 356.770,338.800 357.044 C 338.068 357.650,331.948 360.800,331.503 360.800 C 331.327 360.800,329.702 361.494,327.892 362.343 C 323.837 364.243,319.498 366.070,316.400 367.183 C 315.630 367.459,314.460 367.917,313.800 368.199 C 313.140 368.481,311.610 369.017,310.400 369.390 C 309.190 369.763,307.840 370.226,307.400 370.418 C 305.797 371.120,299.230 373.200,298.618 373.200 C 298.272 373.200,297.677 373.380,297.295 373.601 C 296.636 373.981,292.501 375.107,285.400 376.840 C 283.640 377.270,281.480 377.826,280.600 378.077 C 279.720 378.327,278.190 378.670,277.200 378.839 C 275.501 379.129,273.180 379.632,270.000 380.401 C 268.493 380.765,263.303 381.644,257.200 382.570 C 253.756 383.092,250.850 383.467,239.848 384.811 C 237.894 385.049,234.114 385.349,231.448 385.477 C 228.781 385.604,226.347 385.909,226.039 386.154 C 225.183 386.834,174.621 386.781,173.940 386.100 C 173.636 385.796,172.350 385.600,170.659 385.600 C 165.407 385.600,143.065 382.909,135.451 381.359 C 133.939 381.052,132.195 380.800,131.575 380.800 C 130.955 380.800,130.336 380.620,130.200 380.400 C 130.064 380.180,129.354 380.000,128.622 380.000 C 127.891 380.000,126.416 379.748,125.346 379.440 C 124.276 379.131,121.960 378.561,120.200 378.173 C 113.603 376.716,103.553 374.090,102.705 373.601 C 102.323 373.380,101.728 373.200,101.382 373.200 C 100.761 373.200,94.151 371.102,92.600 370.413 C 92.160 370.217,90.630 369.679,89.200 369.217 C 87.770 368.755,86.240 368.220,85.800 368.029 C 85.360 367.837,84.370 367.456,83.600 367.180 C 80.301 366.001,75.891 364.135,72.185 362.349 C 70.416 361.497,68.796 360.799,68.585 360.799 C 68.059 360.797,63.179 358.319,61.755 357.331 C 61.120 356.891,59.430 355.952,58.000 355.247 C 56.570 354.541,54.257 353.252,52.860 352.382 C 51.463 351.512,50.229 350.800,50.117 350.800 C 50.006 350.800,49.233 350.260,48.400 349.600 C 47.567 348.940,46.717 348.400,46.512 348.400 C 46.307 348.400,45.717 347.950,45.200 347.400 C 44.683 346.850,44.093 346.400,43.888 346.400 C 43.102 346.400,34.127 339.015,29.861 334.858 C 26.343 331.430,21.200 325.472,21.200 324.824 C 21.200 324.591,21.044 324.400,20.853 324.400 C 20.038 324.400,14.502 314.652,12.789 310.200 C 12.620 309.760,12.193 308.743,11.841 307.940 C 11.488 307.136,11.200 306.011,11.200 305.440 C 11.200 304.868,11.038 304.400,10.841 304.400 C 10.643 304.400,10.353 303.095,10.196 301.500 C 10.039 299.905,9.750 298.401,9.554 298.157 C 8.256 296.548,9.549 95.600,10.857 95.600 C 11.046 95.600,11.200 95.132,11.200 94.560 C 11.200 93.989,11.488 92.864,11.841 92.060 C 12.193 91.257,12.619 90.240,12.786 89.800 C 14.235 85.999,19.439 76.676,20.627 75.756 C 20.942 75.512,21.200 75.180,21.200 75.020 C 21.200 73.657,33.149 61.743,39.601 56.673 C 41.027 55.552,43.454 53.769,44.055 53.400 C 44.414 53.180,45.734 52.280,46.988 51.400 C 48.243 50.520,49.929 49.407,50.735 48.927 C 51.541 48.446,52.899 47.636,53.752 47.127 C 56.621 45.414,62.173 42.449,65.600 40.799 C 67.470 39.899,70.440 38.450,72.200 37.578 C 73.960 36.707,75.560 35.995,75.756 35.997 C 75.952 35.999,76.852 35.656,77.756 35.237 C 81.033 33.715,82.332 33.200,82.894 33.200 C 83.209 33.200,83.590 33.077,83.741 32.926 C 84.031 32.636,85.470 32.092,89.400 30.786 C 90.720 30.347,92.093 29.823,92.451 29.621 C 92.809 29.420,93.756 29.132,94.555 28.982 C 95.355 28.832,96.098 28.565,96.207 28.389 C 96.315 28.214,97.122 27.948,98.000 27.800 C 98.878 27.652,99.697 27.366,99.822 27.165 C 99.946 26.964,100.391 26.800,100.811 26.800 C 101.231 26.800,102.963 26.347,104.659 25.793 C 106.356 25.240,108.476 24.675,109.372 24.539 C 110.267 24.402,111.180 24.156,111.400 23.991 C 111.620 23.826,112.610 23.570,113.600 23.423 C 114.590 23.275,115.760 23.005,116.200 22.821 C 116.640 22.638,118.440 22.182,120.200 21.807 C 121.960 21.433,124.390 20.886,125.600 20.592 C 128.489 19.890,134.765 18.794,135.876 18.797 C 136.358 18.799,136.864 18.620,137.000 18.400 C 137.136 18.180,137.811 18.000,138.501 18.000 C 139.190 18.000,141.384 17.738,143.377 17.418 C 152.455 15.961,166.565 14.400,170.659 14.400 C 172.188 14.400,173.615 14.225,173.829 14.011 C 174.605 13.235,225.167 13.167,226.152 13.940 M191.000 26.627 C 190.120 26.710,186.070 26.968,182.000 27.199 C 172.698 27.727,162.421 28.681,158.000 29.427 C 156.130 29.743,153.936 30.001,153.124 30.001 C 152.312 30.000,151.536 30.180,151.400 30.400 C 151.264 30.620,150.488 30.804,149.676 30.810 C 148.864 30.815,147.480 30.994,146.600 31.208 C 145.720 31.422,143.920 31.769,142.600 31.980 C 139.207 32.523,131.146 34.231,127.600 35.158 C 118.331 37.584,116.641 38.057,115.980 38.411 C 115.580 38.625,114.801 38.800,114.250 38.800 C 113.698 38.800,113.149 38.960,113.028 39.155 C 112.907 39.350,112.132 39.636,111.304 39.790 C 110.477 39.945,109.620 40.203,109.400 40.363 C 109.180 40.523,107.920 40.979,106.600 41.377 C 105.280 41.774,103.883 42.260,103.495 42.456 C 103.108 42.652,101.938 43.098,100.895 43.446 C 99.853 43.794,98.460 44.305,97.800 44.581 C 97.140 44.857,95.610 45.494,94.400 45.996 C 92.457 46.803,88.713 48.518,84.400 50.574 C 82.060 51.690,74.269 55.997,72.225 57.304 C 69.510 59.040,64.311 62.617,62.200 64.200 C 55.481 69.239,42.800 82.941,42.800 85.161 C 42.800 85.402,42.663 85.600,42.495 85.600 C 42.174 85.600,42.143 85.653,40.130 89.668 C 38.692 92.538,36.400 99.032,36.400 100.239 C 36.400 100.680,36.175 101.265,35.900 101.540 C 35.191 102.249,35.191 115.351,35.900 116.060 C 36.175 116.335,36.400 116.895,36.400 117.305 C 36.400 118.152,37.572 121.995,38.015 122.600 C 38.176 122.820,38.425 123.550,38.569 124.223 C 38.862 125.596,40.578 129.181,41.814 131.001 C 42.262 131.660,42.881 132.700,43.188 133.312 C 43.496 133.923,44.614 135.499,45.674 136.814 C 46.733 138.128,47.600 139.315,47.600 139.451 C 47.600 140.399,63.276 154.800,64.308 154.800 C 64.525 154.800,64.928 155.072,65.203 155.404 C 66.018 156.385,71.890 160.235,74.251 161.335 C 74.939 161.656,75.613 162.097,75.748 162.316 C 75.883 162.534,77.480 163.457,79.297 164.367 C 81.113 165.277,82.870 166.178,83.200 166.368 C 84.386 167.054,92.384 170.800,92.662 170.800 C 92.819 170.800,93.679 171.133,94.574 171.540 C 95.468 171.947,97.010 172.596,98.000 172.981 C 98.990 173.367,100.113 173.844,100.495 174.041 C 100.877 174.238,101.389 174.400,101.634 174.400 C 101.879 174.400,102.646 174.654,103.340 174.965 C 105.817 176.076,118.154 180.018,121.600 180.801 C 122.810 181.075,124.597 181.548,125.571 181.850 C 126.545 182.153,127.750 182.400,128.248 182.400 C 128.745 182.400,129.253 182.562,129.376 182.761 C 129.498 182.959,130.717 183.251,132.083 183.410 C 133.450 183.568,134.845 183.843,135.184 184.020 C 135.840 184.364,139.308 185.103,142.600 185.600 C 143.700 185.766,145.590 186.094,146.800 186.327 C 148.010 186.561,150.890 187.028,153.200 187.365 C 155.510 187.702,158.030 188.079,158.800 188.202 C 181.327 191.816,218.673 191.816,241.200 188.202 C 241.970 188.079,244.490 187.702,246.800 187.365 C 249.110 187.028,251.990 186.561,253.200 186.327 C 254.410 186.094,256.300 185.764,257.400 185.595 C 261.206 185.011,264.602 184.298,265.000 183.999 C 265.220 183.834,266.464 183.570,267.764 183.413 C 269.065 183.255,270.415 182.982,270.764 182.805 C 271.114 182.628,273.830 181.900,276.800 181.188 C 279.770 180.476,282.807 179.647,283.549 179.347 C 284.291 179.046,285.238 178.800,285.654 178.800 C 286.070 178.800,286.723 178.621,287.105 178.402 C 287.487 178.184,289.690 177.377,292.000 176.609 C 297.825 174.674,299.143 174.190,299.459 173.874 C 299.610 173.723,299.991 173.600,300.306 173.600 C 300.864 173.600,301.332 173.417,305.296 171.647 C 306.338 171.181,307.305 170.800,307.443 170.800 C 307.693 170.800,314.490 167.601,316.400 166.584 C 316.950 166.291,318.887 165.300,320.703 164.382 C 322.520 163.464,324.108 162.550,324.231 162.350 C 324.354 162.151,325.027 161.716,325.727 161.383 C 328.052 160.279,334.012 156.349,334.797 155.404 C 335.072 155.072,335.454 154.800,335.646 154.800 C 335.980 154.800,338.090 153.265,340.600 151.195 C 342.427 149.689,352.400 139.737,352.400 139.421 C 352.400 139.268,352.670 138.873,353.001 138.542 C 353.875 137.667,357.200 132.953,357.200 132.587 C 357.200 132.416,357.614 131.719,358.120 131.038 C 359.205 129.579,360.835 126.209,361.815 123.400 C 362.199 122.300,362.650 121.220,362.819 121.000 C 362.987 120.780,363.255 119.700,363.413 118.600 C 363.571 117.500,363.903 116.347,364.150 116.039 C 364.777 115.256,364.767 102.326,364.139 101.561 C 363.885 101.253,363.549 99.965,363.392 98.700 C 363.236 97.435,362.949 96.400,362.754 96.400 C 362.559 96.400,362.400 96.051,362.400 95.624 C 362.400 95.197,362.220 94.736,362.000 94.600 C 361.780 94.464,361.594 94.048,361.586 93.676 C 361.579 93.304,361.225 92.280,360.800 91.400 C 360.375 90.520,360.021 89.575,360.014 89.300 C 360.006 89.025,359.863 88.800,359.695 88.800 C 359.389 88.800,358.667 87.615,358.171 86.300 C 358.026 85.915,357.748 85.600,357.553 85.600 C 357.359 85.600,357.200 85.366,357.200 85.081 C 357.200 83.895,350.942 76.257,346.147 71.592 C 340.388 65.988,331.678 59.210,328.000 57.471 C 327.670 57.315,326.590 56.658,325.600 56.012 C 324.610 55.365,322.450 54.168,320.800 53.351 C 319.150 52.534,317.243 51.446,316.562 50.933 C 315.881 50.420,315.092 50.000,314.808 50.000 C 314.524 50.000,312.831 49.306,311.046 48.458 C 309.261 47.610,306.810 46.503,305.600 45.999 C 304.390 45.495,302.860 44.857,302.200 44.581 C 301.540 44.305,300.147 43.794,299.105 43.446 C 298.062 43.098,296.892 42.640,296.505 42.430 C 296.117 42.219,294.720 41.737,293.400 41.358 C 292.080 40.979,290.820 40.534,290.600 40.370 C 290.380 40.206,289.523 39.945,288.696 39.790 C 287.868 39.636,287.093 39.350,286.972 39.155 C 286.851 38.960,286.302 38.800,285.750 38.800 C 285.199 38.800,284.420 38.625,284.020 38.411 C 283.359 38.057,281.669 37.584,272.400 35.158 C 270.750 34.727,267.240 33.915,264.600 33.354 C 259.275 32.222,259.342 32.235,254.000 31.361 C 251.910 31.019,249.647 30.573,248.972 30.370 C 248.296 30.166,247.230 30.000,246.603 30.000 C 245.976 30.000,244.008 29.747,242.231 29.438 C 238.890 28.857,228.905 27.896,218.800 27.182 C 212.656 26.749,193.699 26.370,191.000 26.627 M214.600 64.038 C 227.438 65.318,234.389 66.597,247.000 69.999 C 248.754 70.472,253.212 71.991,254.600 72.588 C 255.260 72.872,256.790 73.506,258.000 73.998 C 294.727 88.913,301.230 116.773,272.474 135.998 C 269.738 137.827,259.736 143.078,257.759 143.724 C 257.341 143.860,256.280 144.256,255.400 144.604 C 230.997 154.255,195.336 156.650,165.600 150.634 C 158.366 149.170,150.260 146.843,144.600 144.604 C 143.720 144.256,142.684 143.866,142.298 143.738 C 135.384 141.446,123.883 134.015,118.265 128.212 C 100.550 109.911,110.769 86.567,142.000 73.990 C 143.210 73.503,144.740 72.874,145.400 72.593 C 153.542 69.120,169.630 65.629,184.600 64.088 C 189.779 63.554,209.425 63.522,214.600 64.038 " stroke="none" fill="#fcfbfb" fill-rule="evenodd"></path><path id="path1" d="M184.600 64.088 C 169.630 65.629,153.542 69.120,145.400 72.593 C 144.740 72.874,143.210 73.503,142.000 73.990 C 110.769 86.567,100.550 109.911,118.265 128.212 C 123.883 134.015,135.384 141.446,142.298 143.738 C 142.684 143.866,143.720 144.256,144.600 144.604 C 154.777 148.629,168.469 151.740,182.800 153.282 C 188.260 153.870,211.789 153.866,217.200 153.277 C 231.881 151.678,245.108 148.675,255.400 144.604 C 256.280 144.256,257.341 143.860,257.759 143.724 C 259.736 143.078,269.738 137.827,272.474 135.998 C 301.230 116.773,294.727 88.913,258.000 73.998 C 256.790 73.506,255.260 72.872,254.600 72.588 C 253.212 71.991,248.754 70.472,247.000 69.999 C 234.389 66.597,227.438 65.318,214.600 64.038 C 209.425 63.522,189.779 63.554,184.600 64.088 " stroke="none" fill="#fc7424" fill-rule="evenodd"></path><path id="path2" d="M180.609 13.468 C 176.885 13.557,174.048 13.796,173.809 14.041 C 173.524 14.334,175.394 14.361,180.000 14.130 C 188.501 13.705,211.499 13.705,220.000 14.130 C 224.760 14.369,226.481 14.339,226.175 14.025 C 225.727 13.567,193.098 13.168,180.609 13.468 M162.877 14.901 C 160.829 15.114,159.243 15.376,159.351 15.484 C 159.567 15.701,169.600 14.782,169.600 14.546 C 169.600 14.331,167.097 14.463,162.877 14.901 M232.362 14.792 C 235.409 15.265,241.572 15.660,239.200 15.230 C 238.210 15.050,235.780 14.802,233.800 14.679 C 231.050 14.509,230.711 14.535,232.362 14.792 M153.200 16.000 C 151.829 16.289,151.825 16.295,153.000 16.324 C 153.660 16.341,154.920 16.205,155.800 16.023 L 157.400 15.692 156.000 15.699 C 155.230 15.702,153.970 15.838,153.200 16.000 M246.000 16.225 C 247.650 16.514,249.450 16.738,250.000 16.725 C 250.550 16.711,249.650 16.463,248.000 16.175 C 246.350 15.886,244.550 15.662,244.000 15.675 C 243.450 15.689,244.350 15.937,246.000 16.225 M143.000 17.408 C 141.680 17.686,141.050 17.925,141.600 17.939 C 142.150 17.953,143.680 17.721,145.000 17.424 C 146.320 17.126,146.950 16.887,146.400 16.892 C 145.850 16.898,144.320 17.130,143.000 17.408 M255.000 17.424 C 256.320 17.721,257.850 17.955,258.400 17.943 C 258.950 17.931,258.230 17.680,256.800 17.385 C 253.412 16.687,251.878 16.719,255.000 17.424 M137.000 18.400 C 136.721 18.852,137.625 18.852,139.400 18.400 C 140.533 18.112,140.507 18.092,138.924 18.047 C 138.002 18.021,137.136 18.180,137.000 18.400 M260.600 18.400 C 262.468 18.875,263.936 18.875,263.200 18.400 C 262.870 18.187,261.880 18.031,261.000 18.053 C 259.459 18.093,259.444 18.106,260.600 18.400 M132.423 19.236 C 131.446 19.428,130.456 19.673,130.223 19.781 C 129.529 20.103,133.731 19.517,134.600 19.170 C 135.628 18.760,134.710 18.788,132.423 19.236 M265.800 19.155 C 266.240 19.344,267.410 19.607,268.400 19.741 C 269.584 19.900,269.858 19.871,269.200 19.654 C 267.707 19.162,264.830 18.740,265.800 19.155 M125.600 20.600 C 123.754 21.311,124.493 21.326,127.000 20.628 C 128.198 20.295,128.599 20.069,128.000 20.066 C 127.450 20.063,126.370 20.303,125.600 20.600 M273.000 20.609 C 275.522 21.310,276.230 21.305,274.400 20.600 C 273.630 20.303,272.550 20.059,272.000 20.057 C 271.421 20.055,271.842 20.288,273.000 20.609 M120.200 21.815 C 118.623 22.361,118.620 22.365,120.000 22.132 C 121.632 21.857,123.300 21.248,122.400 21.256 C 122.070 21.259,121.080 21.511,120.200 21.815 M277.800 21.546 C 278.240 21.739,279.230 22.010,280.000 22.150 C 280.961 22.324,281.149 22.294,280.600 22.054 C 280.160 21.861,279.170 21.590,278.400 21.450 C 277.439 21.276,277.251 21.306,277.800 21.546 M116.200 22.800 C 115.905 23.278,116.689 23.278,117.800 22.800 C 118.514 22.493,118.485 22.453,117.524 22.428 C 116.932 22.413,116.336 22.580,116.200 22.800 M282.200 22.800 C 283.311 23.278,284.095 23.278,283.800 22.800 C 283.664 22.580,283.068 22.413,282.476 22.428 C 281.515 22.453,281.486 22.493,282.200 22.800 M112.800 23.488 C 111.669 23.691,110.696 24.418,111.620 24.370 C 111.939 24.353,112.830 24.097,113.600 23.800 C 114.995 23.263,114.699 23.148,112.800 23.488 M286.400 23.781 C 288.031 24.431,289.141 24.567,288.580 24.049 C 288.371 23.855,287.480 23.591,286.600 23.460 L 285.000 23.224 286.400 23.781 M107.400 25.015 C 105.823 25.561,105.820 25.565,107.200 25.332 C 108.832 25.057,110.500 24.448,109.600 24.456 C 109.270 24.459,108.280 24.711,107.400 25.015 M290.600 24.746 C 291.040 24.939,292.030 25.210,292.800 25.350 C 293.761 25.524,293.949 25.494,293.400 25.254 C 292.960 25.061,291.970 24.790,291.200 24.650 C 290.239 24.476,290.051 24.506,290.600 24.746 M103.400 26.202 L 102.200 26.767 103.400 26.530 C 104.060 26.399,104.870 26.142,105.200 25.958 C 106.277 25.359,104.750 25.565,103.400 26.202 M295.000 26.000 C 295.440 26.189,296.070 26.344,296.400 26.344 C 296.778 26.344,296.704 26.217,296.200 26.000 C 295.760 25.811,295.130 25.656,294.800 25.656 C 294.422 25.656,294.496 25.783,295.000 26.000 M196.300 26.298 C 198.335 26.371,201.665 26.371,203.700 26.298 C 205.735 26.225,204.070 26.166,200.000 26.166 C 195.930 26.166,194.265 26.225,196.300 26.298 M186.900 26.694 C 187.945 26.776,189.655 26.776,190.700 26.694 C 191.745 26.612,190.890 26.544,188.800 26.544 C 186.710 26.544,185.855 26.612,186.900 26.694 M209.300 26.694 C 210.345 26.776,212.055 26.776,213.100 26.694 C 214.145 26.612,213.290 26.544,211.200 26.544 C 209.110 26.544,208.255 26.612,209.300 26.694 M99.800 27.200 C 99.508 27.673,99.899 27.673,101.000 27.200 C 101.771 26.869,101.769 26.855,100.924 26.828 C 100.442 26.813,99.936 26.980,99.800 27.200 M177.200 27.209 C 175.990 27.360,177.160 27.398,179.800 27.292 C 182.440 27.187,184.675 27.034,184.767 26.951 C 185.024 26.718,179.667 26.901,177.200 27.209 M215.233 26.951 C 215.325 27.034,217.650 27.195,220.400 27.310 C 223.796 27.452,224.566 27.419,222.800 27.206 C 220.020 26.872,214.957 26.701,215.233 26.951 M299.000 27.200 C 300.101 27.673,300.492 27.673,300.200 27.200 C 300.064 26.980,299.558 26.813,299.076 26.828 C 298.231 26.855,298.229 26.869,299.000 27.200 M97.400 27.885 C 96.464 28.110,95.616 28.800,96.274 28.800 C 96.513 28.800,97.314 28.537,98.054 28.216 C 99.357 27.650,99.041 27.491,97.400 27.885 M168.200 27.802 C 167.980 27.878,166.540 28.074,165.000 28.238 C 163.460 28.402,162.470 28.594,162.800 28.664 C 163.130 28.734,165.380 28.545,167.800 28.245 C 170.220 27.944,171.390 27.690,170.400 27.680 C 169.410 27.671,168.420 27.725,168.200 27.802 M231.800 28.187 C 236.205 28.779,238.754 28.897,236.200 28.391 C 235.320 28.217,233.070 27.978,231.200 27.862 L 227.800 27.649 231.800 28.187 M301.946 28.188 C 303.456 28.875,304.375 29.002,303.780 28.442 C 303.571 28.245,302.770 27.970,302.000 27.830 L 300.600 27.575 301.946 28.188 M93.800 29.085 C 93.360 29.191,92.832 29.437,92.627 29.632 C 92.422 29.827,92.851 29.815,93.581 29.605 C 95.643 29.014,95.817 28.600,93.800 29.085 M155.600 29.400 C 152.661 30.082,154.305 30.105,157.600 29.429 C 159.030 29.136,159.660 28.894,159.000 28.893 C 158.340 28.891,156.810 29.119,155.600 29.400 M242.400 29.415 C 245.788 30.113,247.322 30.081,244.200 29.376 C 242.880 29.079,241.350 28.845,240.800 28.857 C 240.250 28.869,240.970 29.120,242.400 29.415 M305.406 29.210 C 305.506 29.372,306.035 29.590,306.582 29.694 C 307.129 29.799,307.494 29.752,307.394 29.590 C 307.294 29.428,306.765 29.210,306.218 29.106 C 305.671 29.001,305.306 29.048,305.406 29.210 M89.800 30.614 C 89.140 30.917,88.881 31.172,89.224 31.182 C 89.566 31.192,90.196 30.936,90.624 30.613 C 91.572 29.896,91.369 29.896,89.800 30.614 M146.000 30.853 C 143.910 31.282,141.210 31.825,140.000 32.061 C 137.236 32.600,135.084 33.301,137.200 32.974 C 137.970 32.855,139.410 32.595,140.400 32.396 C 147.148 31.042,148.572 30.800,149.788 30.800 C 150.539 30.800,151.264 30.620,151.400 30.400 C 151.747 29.838,150.401 29.951,146.000 30.853 M249.000 30.382 C 250.048 30.811,255.311 31.694,257.600 31.825 C 258.590 31.882,258.860 31.846,258.200 31.746 C 257.540 31.645,255.338 31.212,253.307 30.782 C 249.381 29.951,247.527 29.779,249.000 30.382 M309.376 30.578 C 309.804 30.920,310.434 31.186,310.776 31.168 C 311.315 31.141,311.318 31.107,310.800 30.914 C 310.470 30.792,309.840 30.526,309.400 30.324 C 308.613 29.962,308.612 29.966,309.376 30.578 M311.600 31.284 C 311.710 31.393,312.426 31.693,313.191 31.951 C 313.956 32.210,314.406 32.250,314.191 32.039 C 313.976 31.829,313.260 31.529,312.600 31.372 C 311.940 31.216,311.490 31.176,311.600 31.284 M260.000 32.364 C 260.330 32.545,261.410 32.800,262.400 32.932 C 263.479 33.075,263.880 33.040,263.400 32.845 C 262.271 32.386,259.264 31.960,260.000 32.364 M131.800 33.789 C 129.679 34.488,130.450 34.503,133.200 33.817 C 134.410 33.515,134.950 33.267,134.400 33.265 C 133.850 33.263,132.680 33.499,131.800 33.789 M266.800 33.817 C 268.010 34.119,269.180 34.355,269.400 34.341 C 270.204 34.291,266.570 33.262,265.600 33.265 C 265.050 33.267,265.590 33.515,266.800 33.817 M78.176 35.022 C 77.412 35.634,77.413 35.638,78.200 35.276 C 78.640 35.074,79.270 34.808,79.600 34.686 C 80.118 34.493,80.115 34.459,79.576 34.432 C 79.234 34.414,78.604 34.680,78.176 35.022 M127.000 35.015 C 125.423 35.561,125.420 35.565,126.800 35.332 C 128.432 35.057,130.100 34.448,129.200 34.456 C 128.870 34.459,127.880 34.711,127.000 35.015 M271.000 34.746 C 271.440 34.939,272.430 35.210,273.200 35.350 C 274.161 35.524,274.349 35.494,273.800 35.254 C 273.360 35.061,272.370 34.790,271.600 34.650 C 270.639 34.476,270.451 34.506,271.000 34.746 M321.146 35.016 C 321.886 35.337,322.606 35.594,322.746 35.586 C 323.266 35.557,320.976 34.428,320.400 34.430 C 320.070 34.431,320.406 34.694,321.146 35.016 M75.800 35.885 C 75.360 35.991,74.832 36.237,74.627 36.432 C 74.422 36.627,74.851 36.615,75.581 36.405 C 77.643 35.814,77.817 35.400,75.800 35.885 M122.200 36.207 L 120.600 36.752 122.200 36.525 C 123.888 36.285,125.581 35.606,124.400 35.643 C 124.070 35.653,123.080 35.907,122.200 36.207 M275.600 35.961 C 275.930 36.146,276.920 36.405,277.800 36.537 L 279.400 36.776 278.000 36.219 C 276.411 35.585,274.580 35.389,275.600 35.961 M323.406 36.010 C 323.506 36.172,324.035 36.390,324.582 36.494 C 325.129 36.599,325.494 36.552,325.394 36.390 C 325.294 36.228,324.765 36.010,324.218 35.906 C 323.671 35.801,323.306 35.848,323.406 36.010 M115.400 38.214 C 113.785 38.954,114.751 38.955,116.454 38.216 C 117.194 37.894,117.530 37.639,117.200 37.648 C 116.870 37.657,116.060 37.912,115.400 38.214 M283.546 38.216 C 284.286 38.537,285.096 38.793,285.346 38.784 C 285.596 38.776,285.194 38.506,284.454 38.184 C 283.714 37.863,282.904 37.607,282.654 37.616 C 282.404 37.624,282.806 37.894,283.546 38.216 M68.600 39.414 C 67.595 39.898,67.563 39.953,68.400 39.751 C 68.950 39.619,69.571 39.350,69.780 39.155 C 70.298 38.671,70.014 38.733,68.600 39.414 M112.200 39.085 C 110.975 39.380,110.598 39.928,111.776 39.703 C 112.346 39.594,112.910 39.346,113.030 39.152 C 113.149 38.959,113.192 38.821,113.124 38.846 C 113.056 38.872,112.640 38.979,112.200 39.085 M287.006 39.210 C 287.106 39.372,287.635 39.590,288.182 39.694 C 288.729 39.799,289.094 39.752,288.994 39.590 C 288.894 39.428,288.365 39.210,287.818 39.106 C 287.271 39.001,286.906 39.048,287.006 39.210 M330.209 39.161 C 330.424 39.371,331.140 39.671,331.800 39.828 C 333.348 40.195,333.000 39.854,331.209 39.249 C 330.444 38.990,329.994 38.950,330.209 39.161 M64.329 41.211 C 63.079 41.856,61.958 42.545,61.836 42.742 C 61.714 42.939,62.781 42.480,64.207 41.723 C 65.633 40.966,66.800 40.269,66.800 40.173 C 66.800 39.931,66.847 39.911,64.329 41.211 M108.282 40.251 C 108.144 40.390,107.079 40.827,105.915 41.223 C 104.752 41.620,104.077 41.957,104.415 41.972 C 105.114 42.004,109.064 40.670,109.468 40.265 C 109.614 40.119,109.463 40.000,109.133 40.000 C 108.803 40.000,108.420 40.113,108.282 40.251 M290.600 40.279 C 291.041 40.706,295.025 42.017,295.746 41.972 C 295.996 41.957,295.210 41.587,294.000 41.151 C 290.798 39.998,290.134 39.827,290.600 40.279 M102.200 42.614 C 101.540 42.917,101.281 43.172,101.624 43.182 C 101.966 43.192,102.596 42.936,103.024 42.613 C 103.972 41.896,103.769 41.896,102.200 42.614 M296.976 42.578 C 297.404 42.920,298.034 43.186,298.376 43.168 C 298.915 43.141,298.918 43.107,298.400 42.914 C 298.070 42.792,297.440 42.526,297.000 42.324 C 296.213 41.962,296.212 41.966,296.976 42.578 M99.000 43.814 C 98.000 44.296,97.966 44.351,98.800 44.148 C 99.933 43.871,101.207 43.221,100.600 43.230 C 100.380 43.233,99.660 43.496,99.000 43.814 M299.600 43.546 C 300.574 44.126,302.258 44.547,301.800 44.097 C 301.580 43.880,300.860 43.588,300.200 43.446 C 299.417 43.278,299.208 43.313,299.600 43.546 M96.600 44.685 C 95.375 44.980,94.998 45.528,96.176 45.303 C 96.746 45.194,97.310 44.946,97.430 44.752 C 97.549 44.559,97.592 44.421,97.524 44.446 C 97.456 44.472,97.040 44.579,96.600 44.685 M302.606 44.810 C 302.706 44.972,303.235 45.190,303.782 45.294 C 304.329 45.399,304.694 45.352,304.594 45.190 C 304.494 45.028,303.965 44.810,303.418 44.706 C 302.871 44.601,302.506 44.648,302.606 44.810 M54.400 46.618 C 51.726 48.430,51.412 48.803,53.600 47.568 C 55.921 46.258,56.831 45.576,56.180 45.634 C 55.971 45.653,55.170 46.096,54.400 46.618 M93.000 46.214 C 92.340 46.517,92.070 46.766,92.400 46.768 C 92.730 46.770,93.450 46.514,94.000 46.200 C 95.265 45.477,94.589 45.487,93.000 46.214 M306.000 46.200 C 306.550 46.514,307.270 46.771,307.600 46.770 C 307.930 46.769,307.594 46.506,306.854 46.184 C 305.151 45.445,304.694 45.453,306.000 46.200 M345.600 46.950 C 345.600 47.044,346.241 47.499,347.024 47.961 C 347.807 48.423,348.336 48.620,348.199 48.398 C 347.931 47.964,345.600 46.666,345.600 46.950 M50.400 49.095 C 49.714 49.359,46.172 52.000,46.502 52.000 C 46.622 52.000,47.683 51.353,48.860 50.563 C 51.606 48.718,51.763 48.569,50.400 49.095 M349.003 49.205 C 349.137 49.422,349.436 49.600,349.666 49.600 C 349.896 49.600,350.767 50.140,351.600 50.800 C 352.433 51.460,353.255 52.000,353.426 52.000 C 353.597 52.000,354.111 52.315,354.569 52.700 C 355.399 53.399,355.399 53.399,354.638 52.500 C 354.219 52.005,353.705 51.600,353.496 51.600 C 353.286 51.600,352.459 51.090,351.658 50.466 C 350.100 49.255,348.591 48.538,349.003 49.205 M82.800 51.000 C 82.055 51.550,81.562 52.000,81.705 52.000 C 81.847 52.000,82.628 51.550,83.438 51.000 C 84.249 50.450,84.741 50.000,84.534 50.000 C 84.326 50.000,83.545 50.450,82.800 51.000 M316.600 50.953 C 317.824 51.991,318.647 52.323,318.198 51.597 C 318.061 51.376,317.376 50.911,316.675 50.565 L 315.400 49.935 316.600 50.953 M319.376 52.620 C 320.236 53.262,320.968 53.396,320.630 52.848 C 320.510 52.655,320.005 52.394,319.506 52.268 C 318.632 52.048,318.627 52.060,319.376 52.620 M77.700 53.612 C 77.205 53.811,76.800 54.070,76.800 54.187 C 76.800 54.575,77.437 54.408,78.224 53.813 C 79.108 53.143,78.985 53.096,77.700 53.612 M41.646 55.021 C 39.577 56.648,39.795 56.882,41.927 55.322 C 43.990 53.812,44.225 53.596,43.780 53.621 C 43.571 53.632,42.611 54.262,41.646 55.021 M356.220 53.922 C 357.281 54.821,359.582 56.400,359.831 56.400 C 359.987 56.400,359.290 55.770,358.282 55.000 C 356.728 53.814,355.068 52.946,356.220 53.922 M324.379 55.115 C 325.628 56.152,328.099 57.635,328.278 57.455 C 328.380 57.354,327.594 56.774,326.531 56.166 C 323.739 54.570,323.697 54.550,324.379 55.115 M72.800 56.600 C 72.055 57.150,71.562 57.600,71.705 57.600 C 71.847 57.600,72.628 57.150,73.438 56.600 C 74.249 56.050,74.741 55.600,74.534 55.600 C 74.326 55.600,73.545 56.050,72.800 56.600 M37.551 58.437 L 35.800 60.075 37.494 58.808 C 39.064 57.635,39.887 56.800,39.475 56.800 C 39.380 56.800,38.515 57.537,37.551 58.437 M361.288 57.819 C 361.886 58.445,362.482 58.852,362.611 58.722 C 362.740 58.593,362.251 58.081,361.523 57.584 L 360.200 56.680 361.288 57.819 M329.600 58.378 C 331.020 59.578,332.361 60.325,331.731 59.565 C 331.473 59.254,330.663 58.670,329.931 58.267 L 328.600 57.533 329.600 58.378 M34.278 61.013 C 33.660 61.556,33.314 62.000,33.508 62.000 C 33.702 62.000,34.283 61.550,34.800 61.000 C 35.995 59.728,35.731 59.734,34.278 61.013 M64.888 61.767 C 63.568 62.738,62.342 63.773,62.162 64.067 C 61.983 64.360,62.426 64.105,63.148 63.500 C 63.871 62.895,64.583 62.393,64.731 62.384 C 65.076 62.363,67.850 60.000,67.529 60.000 C 67.396 60.000,66.208 60.795,64.888 61.767 M332.600 60.251 C 332.820 60.469,334.748 61.947,336.884 63.536 C 339.020 65.124,340.875 66.598,341.007 66.812 C 341.139 67.025,341.423 67.200,341.638 67.200 C 342.079 67.200,340.524 65.845,337.000 63.158 C 334.580 61.313,331.860 59.515,332.600 60.251 M364.800 60.455 C 365.130 60.784,367.650 63.196,370.400 65.814 C 374.809 70.012,374.975 70.135,371.800 66.858 C 369.820 64.814,367.300 62.403,366.200 61.499 C 365.100 60.595,364.470 60.126,364.800 60.455 M59.714 65.684 C 58.881 66.391,58.125 67.021,58.033 67.084 C 57.942 67.148,57.946 67.279,58.043 67.376 C 58.139 67.473,59.010 66.843,59.977 65.976 C 62.082 64.090,61.870 63.855,59.714 65.684 M53.013 71.987 C 50.828 74.180,49.122 76.025,49.220 76.087 C 49.319 76.149,51.211 74.355,53.425 72.100 C 55.638 69.845,57.345 68.000,57.217 68.000 C 57.089 68.000,55.198 69.794,53.013 71.987 M346.575 72.100 C 348.789 74.355,350.681 76.149,350.780 76.087 C 350.991 75.954,343.125 68.000,342.783 68.000 C 342.655 68.000,344.362 69.845,346.575 72.100 M24.034 71.353 L 23.069 72.600 24.213 71.512 C 24.843 70.914,25.277 70.353,25.179 70.265 C 25.080 70.177,24.565 70.667,24.034 71.353 M22.001 73.798 C 21.486 74.348,21.152 74.885,21.260 74.994 C 21.368 75.102,21.854 74.652,22.340 73.995 C 23.417 72.539,23.266 72.452,22.001 73.798 M19.108 77.700 C 18.233 79.049,17.448 80.656,17.887 80.200 C 18.448 79.617,20.098 76.800,19.879 76.800 C 19.776 76.800,19.429 77.205,19.108 77.700 M380.335 77.400 C 380.942 78.596,381.975 79.857,381.973 79.400 C 381.972 79.180,381.512 78.460,380.950 77.800 C 380.388 77.140,380.112 76.960,380.335 77.400 M354.400 80.800 C 354.870 81.460,355.344 82.000,355.454 82.000 C 355.564 82.000,355.270 81.460,354.800 80.800 C 354.330 80.140,353.856 79.600,353.746 79.600 C 353.636 79.600,353.930 80.140,354.400 80.800 M384.282 84.189 C 384.873 85.393,385.423 86.311,385.505 86.229 C 385.684 86.049,383.667 82.000,383.398 82.000 C 383.294 82.000,383.692 82.985,384.282 84.189 M43.196 83.606 C 42.724 84.269,42.427 85.034,42.537 85.306 C 42.684 85.670,42.745 85.658,42.768 85.262 C 42.786 84.966,43.172 84.201,43.627 83.562 C 44.082 82.923,44.364 82.400,44.254 82.400 C 44.144 82.400,43.668 82.943,43.196 83.606 M358.009 86.276 C 358.004 86.538,358.193 86.872,358.428 87.017 C 358.663 87.163,359.012 87.668,359.203 88.141 C 359.406 88.645,359.556 88.752,359.566 88.400 C 359.575 88.070,359.230 87.350,358.800 86.800 C 358.370 86.250,358.014 86.014,358.009 86.276 M386.315 88.305 C 387.301 90.513,387.887 91.090,387.021 89.000 C 386.657 88.120,386.177 87.220,385.956 87.000 C 385.735 86.780,385.896 87.367,386.315 88.305 M12.545 90.300 C 12.418 90.685,12.064 91.567,11.757 92.260 C 10.951 94.083,11.102 94.459,11.955 92.753 C 12.731 91.202,13.236 89.600,12.950 89.600 C 12.854 89.600,12.671 89.915,12.545 90.300 M388.067 92.820 C 388.301 93.492,388.567 93.967,388.657 93.876 C 388.856 93.678,388.101 91.600,387.831 91.600 C 387.727 91.600,387.833 92.149,388.067 92.820 M38.044 93.644 C 37.798 94.351,37.666 95.000,37.752 95.085 C 37.838 95.171,38.109 94.662,38.356 93.956 C 38.602 93.249,38.734 92.600,38.648 92.515 C 38.562 92.429,38.291 92.938,38.044 93.644 M361.506 93.418 C 361.610 93.965,361.828 94.494,361.990 94.594 C 362.152 94.694,362.199 94.329,362.094 93.782 C 361.990 93.235,361.772 92.706,361.610 92.606 C 361.448 92.506,361.401 92.871,361.506 93.418 M10.380 97.090 C 10.271 98.019,10.333 98.627,10.520 98.440 C 10.706 98.254,10.796 97.494,10.719 96.751 C 10.583 95.433,10.575 95.442,10.380 97.090 M389.200 96.976 C 389.200 97.733,389.338 98.438,389.507 98.543 C 389.676 98.647,389.748 98.028,389.665 97.166 C 389.481 95.232,389.200 95.118,389.200 96.976 M363.528 99.832 C 363.616 100.588,363.811 101.283,363.961 101.376 C 364.110 101.468,364.161 100.925,364.072 100.168 C 363.984 99.412,363.789 98.717,363.639 98.624 C 363.490 98.532,363.439 99.075,363.528 99.832 M35.952 100.313 C 35.821 101.107,35.879 101.481,36.101 101.259 C 36.303 101.057,36.401 100.467,36.319 99.946 C 36.193 99.145,36.137 99.202,35.952 100.313 M9.443 102.233 C 9.088 103.157,9.145 297.919,9.500 298.138 C 9.665 298.240,9.800 254.061,9.800 199.962 C 9.800 145.863,9.774 101.600,9.743 101.600 C 9.711 101.600,9.576 101.885,9.443 102.233 M390.200 200.000 C 390.200 254.078,390.335 298.240,390.500 298.138 C 390.892 297.896,390.892 102.104,390.500 101.862 C 390.335 101.760,390.200 145.922,390.200 200.000 M35.067 105.067 C 34.698 105.435,34.729 112.309,35.100 112.538 C 35.265 112.640,35.400 110.941,35.400 108.762 C 35.400 106.583,35.385 104.800,35.367 104.800 C 35.348 104.800,35.213 104.920,35.067 105.067 M364.600 108.800 C 364.600 110.958,364.735 112.640,364.900 112.538 C 365.065 112.436,365.200 110.754,365.200 108.800 C 365.200 106.846,365.065 105.164,364.900 105.062 C 364.735 104.960,364.600 106.642,364.600 108.800 M35.952 117.287 C 36.137 118.398,36.193 118.455,36.319 117.654 C 36.401 117.133,36.303 116.543,36.101 116.341 C 35.879 116.119,35.821 116.493,35.952 117.287 M363.820 116.500 C 363.462 117.653,363.337 119.162,363.614 118.992 C 363.777 118.890,363.985 118.176,364.075 117.404 C 364.239 116.002,364.113 115.555,363.820 116.500 M362.253 122.135 C 361.438 124.085,361.055 125.444,361.416 125.101 C 361.785 124.751,363.218 120.800,362.976 120.800 C 362.885 120.800,362.560 121.401,362.253 122.135 M37.995 123.581 C 38.204 124.311,38.486 125.019,38.620 125.154 C 38.996 125.529,38.344 123.052,37.955 122.627 C 37.768 122.422,37.785 122.851,37.995 123.581 M41.390 130.701 C 42.581 133.006,42.794 133.326,42.789 132.800 C 42.785 132.470,42.411 131.750,41.956 131.200 C 41.502 130.650,41.247 130.426,41.390 130.701 M357.821 131.424 C 357.452 131.988,357.206 132.601,357.275 132.786 C 357.344 132.971,357.711 132.510,358.092 131.762 C 358.909 130.153,358.768 129.978,357.821 131.424 M46.384 138.323 C 46.881 139.051,47.393 139.540,47.522 139.411 C 47.652 139.282,47.245 138.686,46.619 138.088 L 45.480 137.000 46.384 138.323 M353.243 138.237 C 352.747 138.807,352.424 139.358,352.527 139.460 C 352.629 139.562,353.105 139.096,353.584 138.423 C 354.648 136.929,354.466 136.830,353.243 138.237 M49.200 141.583 C 49.200 141.925,57.154 149.791,57.287 149.580 C 57.349 149.481,55.555 147.589,53.300 145.375 C 51.045 143.162,49.200 141.455,49.200 141.583 M346.575 145.500 C 344.362 147.755,342.655 149.600,342.783 149.600 C 343.125 149.600,350.991 141.646,350.780 141.513 C 350.681 141.451,348.789 143.245,346.575 145.500 M58.600 150.768 C 59.040 151.273,59.940 152.061,60.600 152.519 L 61.800 153.351 61.000 152.432 C 60.560 151.927,59.660 151.139,59.000 150.681 L 57.800 149.849 58.600 150.768 M340.696 151.016 C 340.093 151.575,339.600 152.149,339.600 152.291 C 339.600 152.433,340.140 152.032,340.800 151.400 C 341.903 150.344,342.172 150.000,341.896 150.000 C 341.839 150.000,341.299 150.457,340.696 151.016 M62.770 154.100 C 63.303 154.705,63.921 155.200,64.144 155.200 C 64.366 155.200,65.010 155.605,65.574 156.100 L 66.600 157.000 65.630 155.900 C 65.097 155.295,64.479 154.800,64.256 154.800 C 64.034 154.800,63.390 154.395,62.826 153.900 L 61.800 153.000 62.770 154.100 M337.000 154.000 C 336.602 154.440,336.065 154.800,335.808 154.800 C 335.550 154.800,334.903 155.274,334.370 155.854 C 333.553 156.742,333.526 156.842,334.200 156.489 C 335.142 155.995,338.309 153.241,337.962 153.217 C 337.831 153.207,337.398 153.560,337.000 154.000 M67.400 157.407 C 67.840 157.766,68.560 158.235,69.000 158.451 L 69.800 158.844 69.000 158.193 C 68.560 157.834,67.840 157.365,67.400 157.149 L 66.600 156.756 67.400 157.407 M331.700 157.646 C 330.337 158.519,329.895 159.106,331.100 158.443 C 332.018 157.939,333.456 156.827,333.200 156.819 C 333.090 156.816,332.415 157.188,331.700 157.646 M73.800 161.600 C 73.936 161.820,74.247 162.000,74.492 162.000 C 74.737 162.000,75.230 162.225,75.588 162.500 C 75.946 162.775,75.815 162.595,75.297 162.100 C 74.349 161.194,73.341 160.857,73.800 161.600 M325.386 161.581 C 324.938 161.762,324.312 162.246,323.993 162.655 C 323.435 163.372,323.445 163.374,324.238 162.700 C 324.692 162.315,325.263 162.000,325.508 162.000 C 325.753 162.000,326.064 161.820,326.200 161.600 C 326.484 161.140,326.474 161.140,325.386 161.581 M83.774 167.157 C 83.924 167.401,84.312 167.600,84.635 167.600 C 84.958 167.600,86.298 168.143,87.611 168.806 C 88.925 169.469,90.000 169.922,90.000 169.812 C 90.000 169.562,85.735 167.408,84.450 167.009 C 83.797 166.807,83.586 166.853,83.774 167.157 M314.650 167.388 C 313.797 167.692,312.897 168.154,312.650 168.416 C 312.402 168.677,312.776 168.601,313.480 168.246 C 314.184 167.891,315.029 167.600,315.357 167.600 C 315.684 167.600,316.064 167.420,316.200 167.200 C 316.500 166.715,316.557 166.708,314.650 167.388 M91.200 170.600 C 91.750 170.914,92.470 171.171,92.800 171.170 C 93.130 171.169,92.794 170.906,92.054 170.584 C 90.351 169.845,89.894 169.853,91.200 170.600 M307.800 170.614 C 307.140 170.917,306.870 171.166,307.200 171.168 C 307.530 171.170,308.250 170.914,308.800 170.600 C 310.065 169.877,309.389 169.887,307.800 170.614 M93.770 171.552 C 93.890 171.745,94.395 172.006,94.894 172.132 C 95.768 172.352,95.773 172.340,95.024 171.780 C 94.164 171.138,93.432 171.004,93.770 171.552 M98.606 173.610 C 98.706 173.772,99.235 173.990,99.782 174.094 C 100.329 174.199,100.694 174.152,100.594 173.990 C 100.494 173.828,99.965 173.610,99.418 173.506 C 98.871 173.401,98.506 173.448,98.606 173.610 M300.600 173.485 C 299.375 173.780,298.998 174.328,300.176 174.103 C 300.746 173.994,301.310 173.746,301.430 173.552 C 301.549 173.359,301.592 173.221,301.524 173.246 C 301.456 173.272,301.040 173.379,300.600 173.485 M102.361 175.022 C 103.109 175.347,103.809 175.525,103.916 175.417 C 104.140 175.194,102.186 174.392,101.474 174.416 C 101.213 174.424,101.612 174.697,102.361 175.022 M296.800 175.000 C 295.494 175.747,295.951 175.755,297.654 175.016 C 298.394 174.694,298.730 174.431,298.400 174.430 C 298.070 174.429,297.350 174.686,296.800 175.000 M293.400 176.202 L 292.200 176.767 293.400 176.532 C 294.060 176.403,294.771 176.140,294.980 175.948 C 295.550 175.426,294.787 175.548,293.400 176.202 M108.600 177.200 C 109.040 177.389,109.670 177.544,110.000 177.544 C 110.378 177.544,110.304 177.417,109.800 177.200 C 109.360 177.011,108.730 176.856,108.400 176.856 C 108.022 176.856,108.096 176.983,108.600 177.200 M290.200 177.200 C 289.696 177.417,289.622 177.544,290.000 177.544 C 290.330 177.544,290.960 177.389,291.400 177.200 C 291.904 176.983,291.978 176.856,291.600 176.856 C 291.270 176.856,290.640 177.011,290.200 177.200 M111.027 177.955 C 111.452 178.344,113.929 178.996,113.554 178.620 C 113.419 178.486,112.711 178.204,111.981 177.995 C 111.251 177.785,110.822 177.768,111.027 177.955 M288.200 177.885 C 286.975 178.180,286.598 178.728,287.776 178.503 C 288.346 178.394,288.910 178.146,289.030 177.952 C 289.149 177.759,289.192 177.621,289.124 177.646 C 289.056 177.672,288.640 177.779,288.200 177.885 M115.546 179.416 C 116.286 179.737,117.096 179.993,117.346 179.984 C 117.596 179.976,117.194 179.706,116.454 179.384 C 115.714 179.063,114.904 178.807,114.654 178.816 C 114.404 178.824,114.806 179.094,115.546 179.416 M283.400 179.414 C 281.785 180.154,282.751 180.155,284.454 179.416 C 285.194 179.094,285.530 178.839,285.200 178.848 C 284.870 178.857,284.060 179.112,283.400 179.414 M119.034 180.372 C 119.420 180.734,122.344 181.441,122.000 181.089 C 121.890 180.976,121.095 180.691,120.234 180.456 C 119.373 180.221,118.833 180.183,119.034 180.372 M279.400 180.615 C 277.812 181.165,277.810 181.167,279.200 180.942 C 279.970 180.818,280.771 180.555,280.980 180.358 C 281.447 179.918,281.387 179.928,279.400 180.615 M123.400 181.573 C 123.840 181.751,124.830 182.008,125.600 182.145 L 127.000 182.393 125.600 181.827 C 124.830 181.516,123.840 181.259,123.400 181.256 L 122.600 181.251 123.400 181.573 M274.600 181.815 C 273.023 182.361,273.020 182.365,274.400 182.132 C 276.032 181.857,277.700 181.248,276.800 181.256 C 276.470 181.259,275.480 181.511,274.600 181.815 M127.800 182.800 C 128.911 183.278,129.695 183.278,129.400 182.800 C 129.264 182.580,128.668 182.413,128.076 182.428 C 127.115 182.453,127.086 182.493,127.800 182.800 M270.600 182.800 C 270.305 183.278,271.089 183.278,272.200 182.800 C 272.914 182.493,272.885 182.453,271.924 182.428 C 271.332 182.413,270.736 182.580,270.600 182.800 M132.000 183.797 C 133.598 184.416,135.560 184.584,134.980 184.052 C 134.771 183.860,133.700 183.603,132.600 183.479 L 130.600 183.255 132.000 183.797 M266.800 183.493 C 265.136 183.688,264.158 184.415,265.620 184.370 C 266.159 184.353,267.230 184.097,268.000 183.800 C 269.431 183.249,269.256 183.204,266.800 183.493 M137.000 184.750 C 137.440 184.935,138.520 185.199,139.400 185.337 C 140.415 185.495,140.708 185.464,140.200 185.250 C 139.760 185.065,138.680 184.801,137.800 184.663 C 136.785 184.505,136.492 184.536,137.000 184.750 M259.800 185.219 C 259.242 185.471,259.485 185.507,260.600 185.338 C 261.480 185.204,262.275 185.028,262.367 184.947 C 262.710 184.644,260.568 184.871,259.800 185.219 M144.200 186.228 C 145.300 186.534,146.560 186.776,147.000 186.765 C 147.440 186.755,146.900 186.496,145.800 186.191 C 144.700 185.885,143.440 185.643,143.000 185.653 C 142.560 185.663,143.100 185.922,144.200 186.228 M254.000 186.220 C 253.010 186.504,252.560 186.747,253.000 186.760 C 253.440 186.774,254.700 186.534,255.800 186.228 C 256.900 185.922,257.350 185.679,256.800 185.688 C 256.250 185.697,254.990 185.936,254.000 186.220 M150.000 187.200 C 150.550 187.376,151.630 187.517,152.400 187.514 L 153.800 187.508 152.200 187.177 C 150.063 186.735,148.596 186.750,150.000 187.200 M247.600 187.200 L 246.200 187.495 247.600 187.507 C 248.370 187.515,249.450 187.376,250.000 187.200 L 251.000 186.880 250.000 186.893 C 249.450 186.900,248.370 187.038,247.600 187.200 M154.941 188.014 C 156.715 188.541,160.702 188.904,160.000 188.474 C 159.670 188.273,158.140 188.010,156.600 187.891 C 154.762 187.749,154.192 187.791,154.941 188.014 M242.331 187.961 C 241.083 188.095,239.928 188.338,239.764 188.502 C 239.307 188.960,241.964 188.784,244.200 188.209 C 246.373 187.651,245.859 187.582,242.331 187.961 M163.800 189.209 C 164.680 189.383,166.930 189.622,168.800 189.738 L 172.200 189.951 168.200 189.413 C 163.795 188.821,161.246 188.703,163.800 189.209 M231.600 189.428 L 227.800 189.943 231.200 189.735 C 234.797 189.514,238.888 188.883,236.600 188.902 C 235.940 188.907,233.690 189.144,231.600 189.428 M177.400 190.391 C 178.940 190.571,182.990 190.813,186.400 190.929 C 191.547 191.103,191.852 191.086,188.200 190.828 C 180.301 190.268,174.262 190.024,177.400 190.391 M219.200 190.295 C 218.210 190.380,215.150 190.606,212.400 190.798 L 207.400 191.146 213.600 190.932 C 220.295 190.702,227.448 190.101,223.200 190.127 C 221.990 190.134,220.190 190.209,219.200 190.295 M10.380 302.910 C 10.575 304.558,10.583 304.567,10.719 303.249 C 10.796 302.506,10.706 301.746,10.520 301.560 C 10.333 301.373,10.271 301.981,10.380 302.910 M389.384 302.300 C 389.256 302.905,389.083 303.741,388.998 304.158 C 388.914 304.574,388.991 304.754,389.170 304.558 C 389.519 304.174,390.062 301.200,389.782 301.200 C 389.690 301.200,389.511 301.695,389.384 302.300 M11.431 306.800 C 11.573 307.350,11.850 307.971,12.045 308.180 C 12.240 308.389,12.400 308.873,12.400 309.256 C 12.400 309.639,12.563 310.054,12.763 310.177 C 13.261 310.485,12.835 308.993,11.925 307.247 C 11.420 306.277,11.257 306.130,11.431 306.800 M388.067 307.180 C 387.833 307.851,387.727 308.400,387.831 308.400 C 388.101 308.400,388.856 306.322,388.657 306.124 C 388.567 306.033,388.301 306.508,388.067 307.180 M385.380 313.640 C 384.811 314.762,384.413 315.747,384.495 315.829 C 384.577 315.911,385.127 314.993,385.718 313.789 C 386.308 312.585,386.706 311.600,386.602 311.600 C 386.498 311.600,385.948 312.518,385.380 313.640 M383.552 317.300 C 383.290 317.795,382.815 318.650,382.496 319.200 C 381.939 320.159,381.943 320.167,382.588 319.400 C 383.386 318.452,384.505 316.400,384.224 316.400 C 384.116 316.400,383.814 316.805,383.552 317.300 M17.850 320.242 C 17.963 320.659,18.514 321.540,19.076 322.200 L 20.098 323.400 19.185 321.800 C 18.042 319.797,17.585 319.264,17.850 320.242 M381.353 320.900 C 379.872 323.411,379.870 323.418,380.929 322.200 C 381.901 321.081,382.239 320.400,381.824 320.400 C 381.727 320.400,381.515 320.625,381.353 320.900 M378.829 324.654 C 378.373 325.234,378.005 325.909,378.012 326.154 C 378.019 326.399,378.224 326.240,378.468 325.800 C 378.712 325.360,379.185 324.685,379.518 324.300 C 379.851 323.915,380.019 323.600,379.891 323.600 C 379.763 323.600,379.285 324.074,378.829 324.654 M21.200 325.064 C 21.200 325.282,21.695 325.897,22.300 326.430 L 23.400 327.400 22.400 326.200 C 21.850 325.540,21.355 324.925,21.300 324.833 C 21.245 324.742,21.200 324.845,21.200 325.064 M376.034 328.153 L 375.069 329.400 376.213 328.312 C 376.843 327.714,377.277 327.153,377.179 327.065 C 377.080 326.977,376.565 327.467,376.034 328.153 M24.188 328.798 C 25.650 330.657,31.785 336.845,33.800 338.494 C 34.900 339.394,34.323 338.743,32.517 337.048 C 30.711 335.353,27.921 332.578,26.317 330.881 C 24.713 329.184,23.755 328.247,24.188 328.798 M369.600 334.914 C 366.630 337.818,365.100 339.443,366.200 338.526 C 368.227 336.835,375.544 329.586,375.192 329.617 C 375.086 329.626,372.570 332.010,369.600 334.914 M37.200 341.373 C 37.200 341.468,37.785 341.950,38.500 342.444 L 39.800 343.342 38.830 342.271 C 37.966 341.316,37.200 340.894,37.200 341.373 M41.770 345.039 C 42.807 345.831,43.730 346.404,43.821 346.312 C 43.998 346.135,40.548 343.600,40.131 343.600 C 39.996 343.600,40.733 344.248,41.770 345.039 M357.705 344.904 C 356.773 345.586,356.086 346.219,356.178 346.311 C 356.270 346.403,357.193 345.831,358.230 345.039 C 360.527 343.286,360.076 343.170,357.705 344.904 M45.362 347.500 C 45.781 347.995,46.295 348.400,46.504 348.400 C 46.714 348.400,47.567 348.940,48.400 349.600 C 49.233 350.260,50.050 350.800,50.215 350.800 C 50.380 350.800,49.690 350.170,48.682 349.400 C 47.673 348.630,46.716 348.000,46.555 348.000 C 46.395 348.000,45.889 347.685,45.431 347.300 C 44.601 346.601,44.601 346.601,45.362 347.500 M352.319 348.719 C 350.845 349.738,349.697 350.631,349.769 350.703 C 349.841 350.775,351.138 349.993,352.650 348.965 C 355.840 346.797,355.849 346.790,355.367 346.833 C 355.165 346.851,353.794 347.700,352.319 348.719 M51.400 351.396 C 52.294 352.139,54.828 353.509,54.200 352.910 C 53.980 352.700,53.080 352.124,52.200 351.630 C 51.320 351.135,50.960 351.030,51.400 351.396 M347.944 351.623 C 347.050 352.402,347.046 352.423,347.878 352.020 C 348.360 351.787,348.866 351.417,349.001 351.198 C 349.395 350.562,348.963 350.735,347.944 351.623 M64.970 359.152 C 65.090 359.345,65.595 359.606,66.094 359.732 C 66.968 359.952,66.973 359.940,66.224 359.380 C 65.364 358.738,64.632 358.604,64.970 359.152 M67.400 360.400 C 67.536 360.620,68.042 360.797,68.524 360.794 C 69.236 360.789,69.288 360.715,68.800 360.400 C 68.012 359.891,67.085 359.891,67.400 360.400 M330.000 361.041 C 328.253 362.017,328.369 362.014,331.093 361.020 C 332.576 360.478,333.195 359.992,332.367 360.018 C 332.055 360.028,330.990 360.488,330.000 361.041 M74.606 363.610 C 74.706 363.772,75.235 363.990,75.782 364.094 C 76.329 364.199,76.694 364.152,76.594 363.990 C 76.494 363.828,75.965 363.610,75.418 363.506 C 74.871 363.401,74.506 363.448,74.606 363.610 M324.600 363.485 C 323.375 363.780,322.998 364.328,324.176 364.103 C 324.746 363.994,325.310 363.746,325.430 363.552 C 325.549 363.359,325.592 363.221,325.524 363.246 C 325.456 363.272,325.040 363.379,324.600 363.485 M78.000 365.000 C 78.550 365.314,79.270 365.571,79.600 365.570 C 79.930 365.569,79.594 365.306,78.854 364.984 C 77.151 364.245,76.694 364.253,78.000 365.000 M321.000 365.014 C 320.340 365.317,320.070 365.566,320.400 365.568 C 320.730 365.570,321.450 365.314,322.000 365.000 C 323.265 364.277,322.589 364.287,321.000 365.014 M83.146 367.016 C 83.886 367.337,84.606 367.594,84.746 367.586 C 85.266 367.557,82.976 366.428,82.400 366.430 C 82.070 366.431,82.406 366.694,83.146 367.016 M85.809 367.961 C 86.024 368.171,86.740 368.471,87.400 368.628 C 88.948 368.995,88.600 368.654,86.809 368.049 C 86.044 367.790,85.594 367.750,85.809 367.961 M312.800 368.225 C 311.834 368.591,311.655 368.762,312.224 368.777 C 312.676 368.790,313.396 368.536,313.824 368.213 C 314.735 367.523,314.653 367.524,312.800 368.225 M88.800 368.961 C 88.800 369.049,89.385 369.317,90.100 369.555 C 91.289 369.952,91.334 369.938,90.624 369.395 C 89.908 368.847,88.800 368.583,88.800 368.961 M309.700 369.212 C 308.361 369.751,308.611 370.024,310.000 369.540 C 310.660 369.310,311.200 369.049,311.200 368.961 C 311.200 368.724,310.713 368.805,309.700 369.212 M92.606 370.410 C 92.706 370.572,93.235 370.790,93.782 370.894 C 94.329 370.999,94.694 370.952,94.594 370.790 C 94.494 370.628,93.965 370.410,93.418 370.306 C 92.871 370.201,92.506 370.248,92.606 370.410 M306.600 370.285 C 305.375 370.580,304.998 371.128,306.176 370.903 C 306.746 370.794,307.310 370.546,307.430 370.352 C 307.549 370.159,307.592 370.021,307.524 370.046 C 307.456 370.072,307.040 370.179,306.600 370.285 M97.800 372.180 C 99.340 372.720,100.870 373.158,101.200 373.152 C 102.000 373.138,98.089 371.757,96.362 371.444 C 95.613 371.308,96.260 371.639,97.800 372.180 M301.292 372.076 C 299.912 372.539,298.853 372.986,298.937 373.071 C 299.022 373.155,300.420 372.780,302.045 372.237 C 303.670 371.694,304.730 371.247,304.400 371.242 C 304.070 371.238,302.671 371.613,301.292 372.076 M102.634 373.572 C 103.020 373.934,105.944 374.641,105.600 374.289 C 105.490 374.176,104.695 373.891,103.834 373.656 C 102.973 373.421,102.433 373.383,102.634 373.572 M295.800 373.815 C 294.212 374.365,294.210 374.367,295.600 374.142 C 296.370 374.018,297.171 373.755,297.380 373.558 C 297.847 373.118,297.787 373.128,295.800 373.815 M106.600 374.746 C 107.040 374.939,108.030 375.210,108.800 375.350 C 109.761 375.524,109.949 375.494,109.400 375.254 C 108.960 375.061,107.970 374.790,107.200 374.650 C 106.239 374.476,106.051 374.506,106.600 374.746 M291.400 375.015 C 289.823 375.561,289.820 375.565,291.200 375.332 C 292.832 375.057,294.500 374.448,293.600 374.456 C 293.270 374.459,292.280 374.711,291.400 375.015 M111.200 375.961 C 111.530 376.146,112.520 376.405,113.400 376.537 L 115.000 376.776 113.600 376.219 C 112.011 375.585,110.180 375.389,111.200 375.961 M286.600 376.207 L 285.000 376.752 286.600 376.525 C 288.288 376.285,289.981 375.606,288.800 375.643 C 288.470 375.653,287.480 375.907,286.600 376.207 M115.800 377.200 C 116.240 377.389,116.870 377.544,117.200 377.544 C 117.578 377.544,117.504 377.417,117.000 377.200 C 116.560 377.011,115.930 376.856,115.600 376.856 C 115.222 376.856,115.296 376.983,115.800 377.200 M283.000 377.200 C 282.496 377.417,282.422 377.544,282.800 377.544 C 283.130 377.544,283.760 377.389,284.200 377.200 C 284.704 376.983,284.778 376.856,284.400 376.856 C 284.070 376.856,283.440 377.011,283.000 377.200 M119.400 377.946 C 119.840 378.139,120.830 378.410,121.600 378.550 C 122.561 378.724,122.749 378.694,122.200 378.454 C 121.760 378.261,120.770 377.990,120.000 377.850 C 119.039 377.676,118.851 377.706,119.400 377.946 M278.600 378.211 C 277.720 378.501,277.360 378.739,277.800 378.739 C 278.240 378.739,279.230 378.497,280.000 378.200 C 281.795 377.509,280.705 377.517,278.600 378.211 M124.838 379.198 C 125.190 379.403,126.270 379.670,127.238 379.792 L 129.000 380.014 127.000 379.424 C 124.693 378.745,123.926 378.664,124.838 379.198 M273.000 379.442 L 271.000 379.990 272.762 379.780 C 273.730 379.665,274.810 379.403,275.162 379.198 C 275.995 378.710,275.448 378.772,273.000 379.442 M130.200 380.307 C 130.420 380.522,131.590 380.797,132.800 380.919 C 135.269 381.169,134.422 380.668,131.600 380.210 C 130.430 380.020,129.940 380.054,130.200 380.307 M267.024 380.450 C 264.699 380.995,264.797 381.208,267.246 380.934 C 269.586 380.671,271.372 380.003,269.600 380.052 C 269.050 380.068,267.891 380.247,267.024 380.450 M136.200 381.585 C 137.422 381.911,140.670 382.120,140.367 381.853 C 140.275 381.772,139.030 381.607,137.600 381.485 C 135.962 381.346,135.444 381.382,136.200 381.585 M261.200 381.600 L 259.400 381.880 261.000 381.893 C 261.880 381.900,263.140 381.768,263.800 381.600 C 265.400 381.193,263.819 381.193,261.200 381.600 M143.200 382.615 C 146.588 383.313,148.122 383.281,145.000 382.576 C 143.680 382.279,142.150 382.045,141.600 382.057 C 141.050 382.069,141.770 382.320,143.200 382.615 M254.000 382.800 C 252.656 383.231,254.108 383.231,255.800 382.800 C 256.878 382.526,256.898 382.494,256.000 382.487 C 255.450 382.483,254.550 382.624,254.000 382.800 M152.000 383.825 C 153.650 384.114,155.450 384.338,156.000 384.325 C 156.550 384.311,155.650 384.063,154.000 383.775 C 152.350 383.486,150.550 383.262,150.000 383.275 C 149.450 383.289,150.350 383.537,152.000 383.825 M245.800 383.793 C 244.260 384.068,243.450 384.305,244.000 384.321 C 244.550 384.337,246.350 384.114,248.000 383.825 C 249.650 383.537,250.460 383.299,249.800 383.298 C 249.140 383.296,247.340 383.519,245.800 383.793 M161.000 384.769 C 163.867 385.226,169.920 385.643,167.600 385.224 C 166.610 385.045,164.270 384.797,162.400 384.674 C 159.996 384.515,159.586 384.543,161.000 384.769 M234.800 384.846 C 233.150 385.035,231.530 385.269,231.200 385.366 C 230.314 385.628,237.102 385.142,239.200 384.793 L 241.000 384.494 239.400 384.499 C 238.520 384.502,236.450 384.658,234.800 384.846 M173.920 386.070 C 174.688 386.853,225.312 386.853,226.080 386.070 C 226.512 385.629,225.479 385.595,220.000 385.870 C 211.499 386.295,188.501 386.295,180.000 385.870 C 174.521 385.595,173.488 385.629,173.920 386.070 " stroke="none" fill="#7ca48c" fill-rule="evenodd"></path><path id="path3" d="M174.807 14.274 C 172.061 14.357,169.640 14.600,169.427 14.813 C 169.214 15.026,167.804 15.200,166.293 15.200 C 164.782 15.200,161.623 15.457,159.273 15.770 C 156.923 16.084,152.480 16.644,149.400 17.015 C 146.320 17.386,143.440 17.839,143.000 18.023 C 142.560 18.206,140.670 18.476,138.800 18.622 C 136.930 18.769,135.220 19.029,135.000 19.200 C 134.780 19.371,133.430 19.641,132.000 19.800 C 130.570 19.959,129.220 20.226,129.000 20.392 C 128.780 20.559,127.790 20.805,126.800 20.939 C 125.810 21.073,123.830 21.453,122.400 21.783 C 120.970 22.114,118.810 22.614,117.600 22.894 C 116.390 23.174,115.220 23.514,115.000 23.651 C 114.780 23.787,113.719 24.026,112.641 24.182 C 111.564 24.339,110.394 24.610,110.041 24.786 C 109.317 25.147,106.406 25.946,104.600 26.279 C 103.940 26.401,103.220 26.642,103.000 26.814 C 102.780 26.987,101.923 27.255,101.096 27.410 C 100.268 27.564,99.499 27.840,99.386 28.022 C 99.274 28.205,98.331 28.477,97.291 28.627 C 96.251 28.778,95.220 29.037,95.000 29.204 C 94.780 29.371,93.970 29.639,93.200 29.800 C 92.430 29.961,91.620 30.225,91.400 30.387 C 91.180 30.549,90.010 31.014,88.800 31.421 C 87.590 31.828,86.429 32.305,86.220 32.481 C 86.011 32.656,85.588 32.800,85.280 32.800 C 84.973 32.800,84.064 33.083,83.260 33.430 C 82.457 33.776,81.260 34.293,80.600 34.579 C 79.940 34.865,78.590 35.408,77.600 35.785 C 76.610 36.163,74.167 37.265,72.172 38.236 C 70.176 39.206,68.357 40.000,68.129 40.000 C 67.676 40.000,62.476 42.643,61.752 43.241 C 61.506 43.445,59.886 44.333,58.152 45.215 C 54.676 46.983,53.997 47.376,52.127 48.699 C 51.426 49.195,50.744 49.600,50.610 49.600 C 50.266 49.600,47.827 51.340,47.667 51.700 C 47.593 51.865,47.389 52.000,47.212 52.000 C 46.751 52.000,42.191 55.088,41.599 55.801 C 41.326 56.130,40.963 56.400,40.792 56.400 C 40.451 56.400,38.854 57.696,35.988 60.300 C 34.959 61.235,34.010 62.000,33.879 62.000 C 33.572 62.000,25.200 70.377,25.200 70.684 C 25.200 70.812,24.392 71.836,23.404 72.959 C 22.416 74.081,21.260 75.397,20.836 75.882 C 20.412 76.367,19.949 77.132,19.806 77.582 C 19.663 78.032,19.390 78.400,19.200 78.400 C 19.010 78.400,18.728 78.805,18.574 79.300 C 18.421 79.795,17.942 80.701,17.512 81.312 C 16.132 83.270,12.818 90.168,12.809 91.100 C 12.804 91.595,12.631 92.000,12.425 92.000 C 12.218 92.000,11.927 92.812,11.778 93.805 C 11.629 94.798,11.348 95.708,11.154 95.829 C 10.959 95.949,10.800 96.631,10.800 97.344 C 10.800 98.057,10.575 98.865,10.300 99.140 C 9.565 99.875,9.565 300.125,10.300 300.860 C 10.575 301.135,10.800 302.044,10.800 302.880 C 10.800 303.716,10.960 304.400,11.155 304.400 C 11.350 304.400,11.631 305.210,11.779 306.200 C 11.928 307.190,12.218 308.000,12.425 308.000 C 12.631 308.000,12.803 308.405,12.807 308.900 C 12.813 309.773,16.759 317.990,17.752 319.200 C 18.024 319.530,18.459 320.250,18.720 320.800 C 19.604 322.664,20.256 323.538,23.380 327.041 C 24.381 328.164,25.200 329.197,25.200 329.337 C 25.200 329.668,33.532 338.000,33.863 338.000 C 34.003 338.000,34.959 338.765,35.988 339.700 C 38.572 342.047,40.443 343.600,40.688 343.600 C 40.802 343.600,41.548 344.146,42.347 344.814 C 43.146 345.482,43.990 346.157,44.222 346.314 C 45.388 347.105,46.258 347.631,46.800 347.873 C 47.130 348.021,47.490 348.245,47.600 348.371 C 47.957 348.780,50.361 350.400,50.610 350.400 C 50.744 350.400,51.443 350.850,52.164 351.400 C 52.886 351.950,53.624 352.400,53.806 352.400 C 53.988 352.400,54.421 352.654,54.769 352.965 C 55.116 353.276,56.930 354.331,58.800 355.309 C 60.670 356.287,63.392 357.717,64.849 358.488 C 66.306 359.258,68.014 360.017,68.645 360.176 C 69.276 360.334,69.884 360.587,69.996 360.738 C 70.298 361.145,75.500 363.598,76.092 363.613 C 76.371 363.620,76.949 363.890,77.376 364.213 C 77.804 364.536,78.524 364.806,78.976 364.813 C 79.429 364.820,80.142 365.084,80.560 365.400 C 80.977 365.717,82.237 366.264,83.360 366.616 C 84.482 366.969,85.760 367.410,86.200 367.597 C 86.640 367.785,87.900 368.253,89.000 368.638 C 90.100 369.023,91.180 369.471,91.400 369.633 C 91.620 369.796,92.477 370.055,93.304 370.210 C 94.132 370.364,94.907 370.650,95.028 370.845 C 95.149 371.040,95.607 371.200,96.047 371.200 C 96.487 371.200,98.446 371.740,100.400 372.400 C 102.354 373.060,104.313 373.600,104.753 373.600 C 105.193 373.600,105.654 373.764,105.778 373.965 C 105.903 374.166,106.768 374.446,107.702 374.588 C 108.636 374.729,109.760 374.997,110.200 375.182 C 110.640 375.367,112.260 375.816,113.800 376.179 C 115.340 376.542,117.590 377.090,118.800 377.396 C 122.889 378.431,126.595 379.202,127.476 379.201 C 127.958 379.200,128.451 379.359,128.571 379.552 C 128.690 379.746,130.140 380.032,131.792 380.186 C 133.443 380.341,134.896 380.633,135.021 380.834 C 135.145 381.035,135.796 381.200,136.466 381.200 C 137.137 381.200,139.241 381.462,141.143 381.783 C 147.507 382.857,153.133 383.600,154.895 383.600 C 155.855 383.600,156.811 383.767,157.020 383.971 C 157.229 384.175,160.010 384.468,163.200 384.622 C 166.390 384.776,169.180 385.037,169.400 385.202 C 171.072 386.455,228.928 386.455,230.600 385.202 C 230.820 385.037,233.610 384.776,236.800 384.622 C 239.990 384.468,242.771 384.175,242.980 383.971 C 243.189 383.767,244.145 383.600,245.105 383.600 C 246.867 383.600,252.493 382.857,258.857 381.783 C 260.759 381.462,262.863 381.200,263.534 381.200 C 264.204 381.200,264.855 381.035,264.979 380.834 C 265.104 380.633,266.557 380.341,268.208 380.186 C 269.860 380.032,271.310 379.746,271.429 379.552 C 271.549 379.359,272.042 379.200,272.524 379.201 C 273.706 379.202,277.883 378.268,285.826 376.224 C 287.161 375.881,288.646 375.600,289.126 375.600 C 289.607 375.600,290.000 375.443,290.000 375.252 C 290.000 375.060,290.893 374.785,291.984 374.640 C 293.075 374.495,294.075 374.202,294.207 373.988 C 294.339 373.775,294.807 373.600,295.247 373.600 C 295.687 373.600,297.646 373.060,299.600 372.400 C 301.554 371.740,303.513 371.200,303.953 371.200 C 304.393 371.200,304.851 371.040,304.972 370.845 C 305.093 370.650,305.868 370.364,306.696 370.210 C 307.523 370.055,308.380 369.790,308.600 369.620 C 308.948 369.352,317.375 366.273,319.300 365.711 C 319.685 365.599,320.000 365.348,320.000 365.153 C 320.000 364.959,320.416 364.800,320.924 364.800 C 321.431 364.800,322.196 364.536,322.624 364.213 C 323.051 363.890,323.635 363.620,323.923 363.613 C 325.023 363.586,343.532 354.393,345.200 353.045 C 345.530 352.779,346.475 352.213,347.300 351.789 C 348.125 351.365,348.800 350.900,348.800 350.756 C 348.800 350.611,349.115 350.388,349.500 350.258 C 350.341 349.976,351.307 349.369,353.256 347.900 C 354.059 347.295,354.832 346.800,354.974 346.800 C 355.254 346.800,355.447 346.657,357.653 344.814 C 358.452 344.146,359.307 343.600,359.553 343.600 C 359.799 343.600,360.000 343.451,360.000 343.268 C 360.000 343.085,360.765 342.376,361.700 341.691 C 362.635 341.007,363.975 339.897,364.678 339.224 C 365.381 338.551,366.055 338.000,366.176 338.000 C 366.472 338.000,374.800 329.758,374.800 329.465 C 374.800 329.338,375.520 328.477,376.400 327.552 C 377.280 326.627,378.000 325.727,378.000 325.553 C 378.000 325.379,378.405 324.813,378.900 324.295 C 380.005 323.138,380.640 322.183,381.402 320.527 C 381.724 319.827,382.144 319.158,382.335 319.040 C 382.849 318.723,387.200 309.813,387.200 309.078 C 387.200 308.731,387.370 308.342,387.577 308.214 C 387.784 308.086,388.075 307.176,388.222 306.191 C 388.370 305.206,388.650 304.400,388.845 304.400 C 389.040 304.400,389.200 303.806,389.200 303.080 C 389.200 302.354,389.392 301.568,389.628 301.332 C 390.232 300.728,390.232 99.272,389.628 98.668 C 389.392 98.432,389.200 97.747,389.200 97.144 C 389.200 96.541,389.041 95.949,388.846 95.829 C 388.652 95.708,388.371 94.798,388.222 93.805 C 388.073 92.812,387.782 92.000,387.575 92.000 C 387.369 92.000,387.200 91.615,387.200 91.144 C 387.200 90.153,383.863 83.187,382.515 81.362 C 382.012 80.681,381.600 79.944,381.600 79.723 C 381.600 79.503,381.240 78.907,380.800 78.400 C 380.360 77.893,380.000 77.235,380.000 76.939 C 380.000 76.642,379.830 76.400,379.621 76.400 C 379.413 76.400,378.613 75.455,377.843 74.300 C 377.073 73.145,376.073 71.973,375.621 71.697 C 375.170 71.420,374.800 71.001,374.800 70.766 C 374.800 70.343,366.521 62.000,366.101 62.000 C 365.981 62.000,365.041 61.235,364.012 60.300 C 361.428 57.953,359.557 56.400,359.312 56.400 C 359.198 56.400,358.452 55.854,357.653 55.186 C 356.854 54.518,356.010 53.843,355.778 53.686 C 354.305 52.687,353.721 52.350,353.100 52.142 C 352.715 52.012,352.400 51.743,352.400 51.543 C 352.400 51.344,351.995 50.997,351.500 50.773 C 350.448 50.297,349.444 49.709,347.790 48.600 C 345.647 47.164,345.039 46.817,342.000 45.299 C 340.350 44.474,338.910 43.686,338.800 43.547 C 338.386 43.024,332.379 40.059,331.215 39.803 C 330.547 39.657,330.000 39.371,330.000 39.168 C 330.000 38.966,329.793 38.800,329.541 38.800 C 329.142 38.800,326.717 37.724,322.668 35.752 C 322.045 35.448,321.294 35.200,321.000 35.200 C 320.706 35.200,319.955 34.941,319.332 34.624 C 317.320 33.602,315.293 32.800,314.720 32.800 C 314.412 32.800,313.989 32.656,313.780 32.481 C 313.571 32.305,312.410 31.828,311.200 31.421 C 309.990 31.014,308.820 30.549,308.600 30.387 C 308.380 30.225,307.570 29.961,306.800 29.800 C 306.030 29.639,305.220 29.371,305.000 29.204 C 304.780 29.037,303.749 28.778,302.709 28.627 C 301.669 28.477,300.726 28.205,300.614 28.022 C 300.501 27.840,299.732 27.564,298.904 27.410 C 298.077 27.255,297.220 26.987,297.000 26.814 C 296.780 26.642,296.060 26.401,295.400 26.279 C 293.594 25.946,290.683 25.147,289.959 24.786 C 289.606 24.610,288.436 24.339,287.359 24.182 C 286.281 24.026,285.220 23.787,285.000 23.651 C 284.780 23.514,283.610 23.174,282.400 22.894 C 281.190 22.614,279.030 22.114,277.600 21.783 C 276.170 21.453,274.190 21.073,273.200 20.939 C 272.210 20.805,271.220 20.559,271.000 20.392 C 270.780 20.226,269.430 19.959,268.000 19.800 C 266.570 19.641,265.220 19.371,265.000 19.200 C 264.780 19.029,263.070 18.769,261.200 18.622 C 259.330 18.476,257.440 18.206,257.000 18.023 C 256.560 17.839,253.680 17.386,250.600 17.015 C 247.520 16.644,243.077 16.084,240.727 15.770 C 238.377 15.457,235.218 15.200,233.707 15.200 C 232.126 15.200,230.759 14.999,230.487 14.727 C 230.016 14.256,186.865 13.905,174.807 14.274 M212.800 26.399 C 223.094 26.890,234.352 27.820,239.682 28.618 C 241.817 28.938,244.101 29.200,244.758 29.200 C 245.415 29.200,246.048 29.354,246.164 29.542 C 246.280 29.730,248.015 30.007,250.020 30.158 C 252.025 30.310,253.965 30.587,254.332 30.775 C 254.700 30.962,256.260 31.328,257.800 31.588 C 259.340 31.848,261.320 32.207,262.200 32.387 C 263.080 32.567,264.880 32.926,266.200 33.186 C 267.520 33.445,268.877 33.802,269.216 33.980 C 269.555 34.157,270.808 34.436,272.000 34.600 C 273.192 34.764,274.445 35.040,274.784 35.213 C 275.123 35.386,276.930 35.913,278.800 36.383 C 283.473 37.559,288.921 39.245,289.380 39.658 C 289.589 39.846,290.230 40.000,290.804 40.000 C 291.377 40.000,292.196 40.264,292.624 40.587 C 293.051 40.910,293.760 41.181,294.200 41.190 C 294.640 41.198,295.516 41.474,296.146 41.802 C 296.776 42.131,297.526 42.400,297.813 42.400 C 298.100 42.400,298.845 42.659,299.468 42.976 C 301.480 43.998,303.507 44.800,304.080 44.800 C 304.388 44.800,304.811 44.953,305.020 45.140 C 305.229 45.327,306.120 45.759,307.000 46.099 C 308.752 46.778,315.206 49.745,316.800 50.604 C 317.350 50.901,319.238 51.887,320.996 52.797 C 322.754 53.706,324.478 54.709,324.827 55.025 C 325.177 55.341,325.609 55.600,325.786 55.600 C 326.152 55.600,331.691 59.175,332.000 59.610 C 332.110 59.765,332.605 60.019,333.100 60.173 C 333.595 60.328,334.000 60.622,334.000 60.827 C 334.000 61.032,334.251 61.200,334.557 61.200 C 334.864 61.200,335.218 61.470,335.345 61.800 C 335.471 62.130,335.817 62.400,336.113 62.400 C 336.408 62.400,337.168 62.940,337.800 63.600 C 338.432 64.260,339.085 64.800,339.249 64.800 C 340.138 64.800,354.000 78.496,354.000 79.374 C 354.000 79.490,354.724 80.532,355.609 81.692 C 356.493 82.851,357.323 84.205,357.452 84.700 C 357.581 85.195,357.814 85.600,357.970 85.600 C 358.126 85.600,358.871 86.815,359.627 88.300 C 360.382 89.785,361.129 91.058,361.287 91.129 C 361.445 91.200,361.696 91.903,361.844 92.692 C 361.992 93.480,362.356 94.592,362.654 95.163 C 362.952 95.733,363.196 96.594,363.198 97.076 C 363.199 97.558,363.368 98.057,363.573 98.183 C 363.778 98.310,364.072 99.851,364.225 101.607 C 364.378 103.363,364.660 104.800,364.852 104.800 C 365.043 104.800,365.200 106.600,365.200 108.800 C 365.200 111.000,365.043 112.800,364.852 112.800 C 364.660 112.800,364.378 114.237,364.225 115.993 C 364.072 117.749,363.778 119.290,363.573 119.417 C 363.368 119.543,363.199 120.042,363.198 120.524 C 363.196 121.006,362.943 121.883,362.635 122.473 C 362.327 123.063,361.946 124.143,361.787 124.873 C 361.629 125.603,361.381 126.290,361.236 126.400 C 361.091 126.510,360.357 127.815,359.604 129.300 C 358.852 130.785,358.113 132.000,357.961 132.000 C 357.810 132.000,357.580 132.405,357.449 132.900 C 357.229 133.737,355.805 135.759,352.418 140.049 C 351.048 141.784,343.473 149.430,342.362 150.200 C 342.044 150.420,340.590 151.635,339.131 152.900 C 337.671 154.165,336.351 155.200,336.196 155.200 C 336.042 155.200,335.233 155.740,334.400 156.400 C 333.567 157.060,332.701 157.600,332.476 157.600 C 332.251 157.600,332.007 157.735,331.933 157.900 C 331.742 158.330,329.302 160.000,328.865 160.000 C 328.663 160.000,328.262 160.285,327.973 160.633 C 327.684 160.981,326.860 161.566,326.141 161.933 C 321.428 164.339,318.103 166.176,317.264 166.835 C 316.730 167.256,316.022 167.600,315.691 167.600 C 315.204 167.600,307.942 170.913,305.105 172.429 C 304.723 172.633,304.211 172.800,303.966 172.800 C 303.721 172.800,302.954 173.046,302.260 173.346 C 301.567 173.646,300.190 174.204,299.200 174.587 C 298.210 174.969,297.124 175.421,296.787 175.590 C 296.450 175.760,295.550 176.034,294.787 176.200 C 294.024 176.366,293.045 176.749,292.611 177.051 C 292.177 177.353,291.333 177.600,290.735 177.600 C 290.137 177.600,289.546 177.764,289.422 177.965 C 289.297 178.166,288.478 178.452,287.600 178.600 C 286.722 178.748,285.909 179.024,285.793 179.212 C 285.676 179.400,284.731 179.677,283.691 179.827 C 282.651 179.978,281.620 180.233,281.400 180.394 C 281.180 180.554,279.740 180.995,278.200 181.373 C 276.660 181.751,274.524 182.316,273.454 182.630 C 272.384 182.943,271.089 183.200,270.578 183.200 C 270.066 183.200,269.545 183.366,269.419 183.569 C 269.294 183.771,268.021 184.063,266.590 184.216 C 265.159 184.369,263.891 184.653,263.771 184.847 C 263.651 185.041,263.105 185.200,262.559 185.200 C 262.012 185.200,260.447 185.452,259.082 185.760 C 254.215 186.857,249.774 187.604,248.124 187.602 C 247.202 187.601,246.346 187.763,246.223 187.963 C 246.100 188.162,244.244 188.440,242.099 188.580 C 239.955 188.721,237.910 188.994,237.555 189.187 C 237.200 189.380,234.320 189.665,231.155 189.820 C 227.990 189.975,225.220 190.237,225.000 190.401 C 223.398 191.597,176.602 191.597,175.000 190.401 C 174.780 190.237,172.010 189.975,168.845 189.820 C 165.680 189.665,162.800 189.380,162.445 189.187 C 162.090 188.994,160.045 188.721,157.901 188.580 C 155.756 188.440,153.900 188.162,153.777 187.963 C 153.654 187.763,152.888 187.601,152.076 187.603 C 150.501 187.605,145.001 186.701,140.918 185.767 C 139.553 185.455,137.988 185.200,137.441 185.200 C 136.895 185.200,136.349 185.041,136.229 184.847 C 136.109 184.653,134.841 184.369,133.410 184.216 C 131.979 184.063,130.706 183.771,130.581 183.569 C 130.455 183.366,129.974 183.200,129.512 183.200 C 129.049 183.200,127.754 182.940,126.635 182.623 C 125.516 182.306,123.340 181.740,121.800 181.366 C 120.260 180.992,118.820 180.549,118.600 180.381 C 118.380 180.212,117.343 179.947,116.295 179.791 C 115.247 179.635,114.301 179.364,114.193 179.189 C 114.085 179.013,113.278 178.748,112.400 178.600 C 111.522 178.452,110.703 178.166,110.578 177.965 C 110.454 177.764,109.863 177.600,109.265 177.600 C 108.667 177.600,107.823 177.353,107.389 177.051 C 106.955 176.749,105.976 176.366,105.213 176.200 C 104.450 176.034,103.550 175.760,103.213 175.590 C 102.876 175.421,101.790 174.969,100.800 174.587 C 99.810 174.204,98.433 173.646,97.740 173.346 C 97.046 173.046,96.296 172.800,96.072 172.800 C 95.848 172.800,95.155 172.537,94.532 172.214 C 91.010 170.393,84.820 167.600,84.306 167.600 C 83.977 167.600,83.270 167.256,82.736 166.835 C 82.201 166.415,80.287 165.290,78.482 164.335 C 73.135 161.508,72.776 161.303,72.041 160.637 C 71.654 160.287,71.209 160.000,71.052 160.000 C 70.677 160.000,68.238 158.284,68.067 157.900 C 67.993 157.735,67.749 157.600,67.524 157.600 C 67.299 157.600,66.433 157.060,65.600 156.400 C 64.767 155.740,63.958 155.200,63.804 155.200 C 63.649 155.200,62.329 154.165,60.869 152.900 C 59.410 151.635,57.956 150.420,57.638 150.200 C 56.792 149.614,49.124 141.972,48.194 140.788 C 47.758 140.232,46.725 138.942,45.900 137.921 C 45.075 136.900,44.400 135.871,44.400 135.633 C 44.400 135.395,44.261 135.200,44.091 135.200 C 43.921 135.200,43.428 134.525,42.995 133.700 C 42.562 132.875,42.093 132.110,41.954 132.000 C 41.515 131.654,40.000 128.635,40.000 128.106 C 40.000 127.828,39.862 127.600,39.694 127.600 C 39.385 127.600,38.000 124.692,38.000 124.043 C 38.000 123.850,37.731 123.176,37.402 122.546 C 37.074 121.916,36.804 121.006,36.802 120.524 C 36.801 120.042,36.632 119.543,36.427 119.417 C 36.222 119.290,35.928 117.745,35.774 115.984 C 35.621 114.223,35.339 112.686,35.148 112.568 C 34.693 112.287,34.694 104.800,35.148 104.800 C 35.340 104.800,35.622 103.363,35.775 101.607 C 35.928 99.851,36.222 98.310,36.427 98.183 C 36.632 98.057,36.801 97.558,36.802 97.076 C 36.804 96.594,37.074 95.684,37.402 95.054 C 37.731 94.424,38.000 93.699,38.000 93.444 C 38.000 92.901,41.474 85.943,41.907 85.620 C 42.068 85.499,42.543 84.725,42.963 83.900 C 43.383 83.075,43.878 82.400,44.063 82.400 C 44.248 82.400,44.400 82.222,44.400 82.004 C 44.400 80.417,59.288 64.800,60.801 64.800 C 60.938 64.800,61.568 64.260,62.200 63.600 C 62.832 62.940,63.515 62.400,63.717 62.400 C 63.919 62.400,64.767 61.860,65.600 61.200 C 66.433 60.540,67.299 60.000,67.524 60.000 C 67.749 60.000,67.993 59.865,68.067 59.700 C 68.216 59.365,73.462 55.850,74.400 55.457 C 75.060 55.180,76.485 54.315,76.800 54.000 C 76.910 53.890,78.080 53.270,79.400 52.621 C 80.720 51.973,82.229 51.118,82.754 50.721 C 83.279 50.325,83.955 50.000,84.257 50.000 C 84.714 50.000,92.536 46.453,94.895 45.176 C 95.277 44.969,95.789 44.800,96.034 44.800 C 96.508 44.800,98.662 43.926,100.532 42.976 C 101.155 42.659,102.000 42.400,102.409 42.400 C 102.818 42.400,103.251 42.240,103.372 42.045 C 103.493 41.850,104.259 41.565,105.075 41.412 C 105.891 41.259,106.923 40.879,107.369 40.567 C 107.814 40.255,108.642 40.000,109.209 40.000 C 109.776 40.000,110.411 39.852,110.620 39.671 C 110.829 39.490,111.990 39.040,113.200 38.671 C 114.410 38.303,116.210 37.753,117.200 37.449 C 118.190 37.146,120.350 36.583,122.000 36.199 C 123.650 35.814,125.277 35.365,125.615 35.199 C 125.954 35.034,127.034 34.776,128.015 34.627 C 128.997 34.477,130.160 34.201,130.600 34.013 C 131.040 33.825,132.480 33.455,133.800 33.192 C 135.120 32.929,136.920 32.567,137.800 32.387 C 138.680 32.207,140.660 31.848,142.200 31.588 C 143.740 31.328,145.289 30.969,145.643 30.790 C 145.996 30.611,147.796 30.348,149.643 30.205 C 151.489 30.062,153.360 29.798,153.800 29.619 C 159.020 27.493,194.811 25.540,212.800 26.399 " stroke="none" fill="#04541c" fill-rule="evenodd"></path><path id="path4" d="M193.300 13.899 C 196.985 13.965,203.015 13.965,206.700 13.899 C 210.385 13.833,207.370 13.779,200.000 13.779 C 192.630 13.779,189.615 13.833,193.300 13.899 M167.105 15.083 C 167.602 15.179,168.322 15.175,168.705 15.075 C 169.087 14.975,168.680 14.896,167.800 14.901 C 166.920 14.905,166.607 14.987,167.105 15.083 M231.505 15.083 C 232.002 15.179,232.722 15.175,233.105 15.075 C 233.487 14.975,233.080 14.896,232.200 14.901 C 231.320 14.905,231.007 14.987,231.505 15.083 M242.200 16.023 C 243.080 16.205,244.250 16.344,244.800 16.331 C 245.441 16.316,245.226 16.189,244.200 15.977 C 243.320 15.795,242.150 15.656,241.600 15.669 C 240.959 15.684,241.174 15.811,242.200 16.023 M147.700 17.076 C 148.085 17.176,148.715 17.176,149.100 17.076 C 149.485 16.975,149.170 16.893,148.400 16.893 C 147.630 16.893,147.315 16.975,147.700 17.076 M250.900 17.076 C 251.285 17.176,251.915 17.176,252.300 17.076 C 252.685 16.975,252.370 16.893,251.600 16.893 C 250.830 16.893,250.515 16.975,250.900 17.076 M140.900 18.276 C 141.285 18.376,141.915 18.376,142.300 18.276 C 142.685 18.175,142.370 18.093,141.600 18.093 C 140.830 18.093,140.515 18.175,140.900 18.276 M257.700 18.276 C 258.085 18.376,258.715 18.376,259.100 18.276 C 259.485 18.175,259.170 18.093,258.400 18.093 C 257.630 18.093,257.315 18.175,257.700 18.276 M271.141 20.501 C 271.343 20.703,271.933 20.801,272.454 20.719 C 273.255 20.593,273.198 20.537,272.087 20.352 C 271.293 20.221,270.919 20.279,271.141 20.501 M176.100 27.087 C 176.705 27.178,177.695 27.178,178.300 27.087 C 178.905 26.995,178.410 26.920,177.200 26.920 C 175.990 26.920,175.495 26.995,176.100 27.087 M221.700 27.087 C 222.305 27.178,223.295 27.178,223.900 27.087 C 224.505 26.995,224.010 26.920,222.800 26.920 C 221.590 26.920,221.095 26.995,221.700 27.087 M172.300 27.482 C 172.795 27.578,173.605 27.578,174.100 27.482 C 174.595 27.387,174.190 27.309,173.200 27.309 C 172.210 27.309,171.805 27.387,172.300 27.482 M225.900 27.482 C 226.395 27.578,227.205 27.578,227.700 27.482 C 228.195 27.387,227.790 27.309,226.800 27.309 C 225.810 27.309,225.405 27.387,225.900 27.482 M236.600 28.423 C 237.480 28.605,238.650 28.744,239.200 28.731 C 239.841 28.716,239.626 28.589,238.600 28.377 C 237.720 28.195,236.550 28.056,236.000 28.069 C 235.359 28.084,235.574 28.211,236.600 28.423 M160.500 28.676 C 160.885 28.776,161.515 28.776,161.900 28.676 C 162.285 28.575,161.970 28.493,161.200 28.493 C 160.430 28.493,160.115 28.575,160.500 28.676 M113.800 38.400 C 113.296 38.617,113.222 38.744,113.600 38.744 C 113.930 38.744,114.560 38.589,115.000 38.400 C 115.504 38.183,115.578 38.056,115.200 38.056 C 114.870 38.056,114.240 38.211,113.800 38.400 M285.000 38.400 C 285.440 38.589,286.070 38.744,286.400 38.744 C 286.778 38.744,286.704 38.617,286.200 38.400 C 285.760 38.211,285.130 38.056,284.800 38.056 C 284.422 38.056,284.496 38.183,285.000 38.400 M52.792 71.900 L 49.000 75.800 52.900 72.008 C 56.522 68.486,56.982 68.000,56.692 68.000 C 56.633 68.000,54.878 69.755,52.792 71.900 M346.800 71.800 C 348.881 73.890,350.674 75.600,350.784 75.600 C 350.894 75.600,349.281 73.890,347.200 71.800 C 345.119 69.710,343.326 68.000,343.216 68.000 C 343.106 68.000,344.719 69.710,346.800 71.800 M390.196 200.000 C 390.196 246.310,390.243 265.255,390.300 242.100 C 390.357 218.945,390.357 181.055,390.300 157.900 C 390.243 134.745,390.196 153.690,390.196 200.000 M52.800 145.800 C 54.881 147.890,56.674 149.600,56.784 149.600 C 56.894 149.600,55.281 147.890,53.200 145.800 C 51.119 143.710,49.326 142.000,49.216 142.000 C 49.106 142.000,50.719 143.710,52.800 145.800 M346.792 145.900 L 343.000 149.800 346.900 146.008 C 349.045 143.922,350.800 142.167,350.800 142.108 C 350.800 141.818,350.314 142.278,346.792 145.900 M107.376 176.978 C 107.804 177.320,108.434 177.586,108.776 177.568 C 109.315 177.541,109.318 177.507,108.800 177.314 C 108.470 177.192,107.840 176.926,107.400 176.724 C 106.613 176.362,106.612 176.366,107.376 176.978 M141.600 186.000 C 142.150 186.176,142.960 186.320,143.400 186.320 C 144.033 186.320,143.992 186.254,143.200 186.000 C 142.650 185.824,141.840 185.680,141.400 185.680 C 140.767 185.680,140.808 185.746,141.600 186.000 M256.800 186.000 C 256.008 186.254,255.967 186.320,256.600 186.320 C 257.040 186.320,257.850 186.176,258.400 186.000 C 259.192 185.746,259.233 185.680,258.600 185.680 C 258.160 185.680,257.350 185.824,256.800 186.000 M250.000 187.200 C 248.656 187.631,250.108 187.631,251.800 187.200 C 252.878 186.926,252.898 186.894,252.000 186.887 C 251.450 186.883,250.550 187.024,250.000 187.200 M176.100 190.687 C 176.705 190.778,177.695 190.778,178.300 190.687 C 178.905 190.595,178.410 190.520,177.200 190.520 C 175.990 190.520,175.495 190.595,176.100 190.687 M221.700 190.687 C 222.305 190.778,223.295 190.778,223.900 190.687 C 224.505 190.595,224.010 190.520,222.800 190.520 C 221.590 190.520,221.095 190.595,221.700 190.687 M196.100 191.498 C 198.245 191.570,201.755 191.570,203.900 191.498 C 206.045 191.426,204.290 191.367,200.000 191.367 C 195.710 191.367,193.955 191.426,196.100 191.498 M298.200 372.800 C 297.696 373.017,297.622 373.144,298.000 373.144 C 298.330 373.144,298.960 372.989,299.400 372.800 C 299.904 372.583,299.978 372.456,299.600 372.456 C 299.270 372.456,298.640 372.611,298.200 372.800 M117.000 377.200 C 117.440 377.389,118.070 377.544,118.400 377.544 C 118.778 377.544,118.704 377.417,118.200 377.200 C 117.760 377.011,117.130 376.856,116.800 376.856 C 116.422 376.856,116.496 376.983,117.000 377.200 M281.800 377.200 C 281.296 377.417,281.222 377.544,281.600 377.544 C 281.930 377.544,282.560 377.389,283.000 377.200 C 283.504 376.983,283.578 376.856,283.200 376.856 C 282.870 376.856,282.240 377.011,281.800 377.200 M252.000 382.800 C 250.643 383.086,250.637 383.095,251.800 383.107 C 252.460 383.115,253.450 382.976,254.000 382.800 C 255.312 382.380,253.996 382.380,252.000 382.800 M154.400 383.756 C 154.400 383.842,155.017 383.985,155.772 384.073 C 156.527 384.161,157.056 384.090,156.948 383.916 C 156.755 383.603,154.400 383.455,154.400 383.756 M243.052 383.916 C 242.944 384.090,243.473 384.161,244.228 384.073 C 244.983 383.985,245.600 383.842,245.600 383.756 C 245.600 383.455,243.245 383.603,243.052 383.916 M166.400 384.958 C 166.400 385.045,167.105 385.183,167.966 385.265 C 168.828 385.348,169.447 385.276,169.343 385.107 C 169.153 384.800,166.400 384.660,166.400 384.958 M230.657 385.107 C 230.553 385.276,231.172 385.348,232.034 385.265 C 232.895 385.183,233.600 385.045,233.600 384.958 C 233.600 384.660,230.847 384.800,230.657 385.107 " stroke="none" fill="#40ac50" fill-rule="evenodd"></path></g></svg>